<svg width="75" height="83" viewBox="0 0 75 83" fill="none" xmlns="http://www.w3.org/2000/svg">
<path fill-rule="evenodd" clip-rule="evenodd" d="M57.5745 29.8C57.8628 29.9266 58.136 30.0458 58.3904 30.1814C58.5417 30.2619 58.693 30.3446 58.845 30.4272C59.4577 30.7617 60.0914 31.1074 60.7665 31.3309C60.9133 31.38 61.0736 31.316 61.1572 31.1759C61.24 31.0366 61.2174 30.8668 61.103 30.7632C60.3571 30.0913 59.4516 29.6041 58.5755 29.1325C58.4589 29.07 58.3407 29.0029 58.2188 28.9344C57.6008 28.5857 56.9001 28.1902 56.1685 28.1805C56.1166 28.182 56.0579 28.1917 56.0082 28.2148C54.606 26.5565 53.0532 24.9951 51.3876 23.5656C51.855 23.5209 52.3337 23.4821 52.835 23.4412C53.6494 23.3749 54.4908 23.3071 55.327 23.2065C58.2331 23.8062 61.2558 25.054 64.3108 26.9148C66.7457 28.398 70.1749 30.7208 72.2439 33.9456C70.5 33.4353 68.7034 33.3832 66.5681 33.3705L66.4424 33.3698C64.8768 33.3608 63.2579 33.3511 61.736 32.9653C60.9645 32.7693 60.248 32.4267 59.5548 32.0952C59.2492 31.9492 58.9331 31.7979 58.6147 31.6609C58.1616 30.9867 57.6611 30.2946 57.1206 29.5974C57.2719 29.6674 57.424 29.7344 57.5745 29.8ZM48.9791 14.2359C47.339 15.4926 46.3967 17.3423 46.1777 19.7351C46.1769 19.7418 46.1769 19.7485 46.1769 19.7559C44.6377 18.6795 43.0699 17.7133 41.5141 16.8827C41.6097 16.8112 41.6888 16.7136 41.7377 16.5996C41.8363 16.3724 41.7926 16.1243 41.621 15.9366C38.9927 13.0708 38.5351 10.3853 40.2211 7.72808C40.9722 6.54362 41.8589 5.42099 42.7162 4.33561C43.2807 3.61972 43.864 2.88223 44.4074 2.1276C44.9869 3.12731 45.6515 4.08382 46.2958 5.01053C46.9363 5.93202 47.5987 6.88481 48.1715 7.87335C49.314 9.84595 49.5571 11.7515 48.9791 14.2359ZM52.6528 22.2358C51.9137 22.3111 51.2145 22.3826 50.5273 22.475C50.4114 22.4906 50.312 22.539 50.236 22.615C49.0393 21.6608 47.8147 20.7869 46.5924 20.0159C46.6496 19.9913 46.6985 19.9489 46.7294 19.8915C46.9235 19.5354 47.1057 19.1719 47.2878 18.8091C47.9893 17.4116 48.6524 16.0916 49.9033 15.1432C51.2348 14.1346 52.9516 13.5349 55.0064 13.3621C57.226 13.1751 59.4923 13.2898 61.6833 13.4008C62.7754 13.4567 63.9014 13.5141 65.0153 13.5334L64.9521 13.6712C63.7509 16.2934 62.3893 19.2658 59.9168 20.5798C57.783 21.7129 55.175 21.9788 52.6528 22.2358ZM2.56453 66.9838C2.49679 65.4761 2.36281 63.9407 2.2326 62.4561C2.12347 61.2038 2.00981 59.9084 1.94057 58.6598C1.73509 54.9619 1.57327 50.5966 1.93681 46.2573C2.67667 37.417 5.19208 30.101 9.41377 24.5124C13.8997 18.5745 20.1528 15.0218 26.5708 14.7656C34.1689 14.4661 41.8423 17.7096 50.0381 24.6927C50.1419 25.1031 50.3015 25.5017 50.5115 25.8779C50.5589 25.9628 50.6071 26.0514 50.656 26.1423C50.9593 26.707 51.3041 27.3469 51.8716 27.6695C52.004 27.7447 52.1621 27.7365 52.284 27.6494C52.4097 27.5592 52.4699 27.4028 52.4376 27.253C52.3352 26.7703 52.0341 26.333 51.7421 25.9099C51.712 25.8667 51.6826 25.8242 51.654 25.781C55.6236 29.6205 58.2782 33.2543 59.9672 37.1504C63.5672 45.4527 62.3486 55.435 57.0032 61.4236C51.6367 67.436 43.6367 69.7141 35.9 71.9169L34.1177 72.4257C30.0232 73.5974 25.7887 74.8087 21.5505 75.6557C17.1083 76.5422 12.7631 76.7411 7.87608 76.2815C7.85802 76.28 7.8392 76.2792 7.82113 76.2792C7.79404 76.2792 7.76619 76.2807 7.73759 76.2845C6.3271 75.6267 5.23799 74.5614 4.4078 73.0283C4.10749 72.4733 3.85685 71.861 3.61449 71.2688C3.44364 70.8523 3.26752 70.4225 3.07408 70.0113C3.05075 69.7111 3.02064 69.4384 2.98075 69.177C2.96419 69.0682 2.94914 68.9565 2.93333 68.844C2.89194 68.5452 2.84903 68.2353 2.78205 67.9277C2.77904 67.8979 2.77076 67.8755 2.76474 67.8606C2.7128 67.6483 2.65936 67.4807 2.59463 67.3302V67.3064C2.59539 67.2639 2.59539 67.2215 2.59764 67.1805C2.60066 67.1112 2.59012 67.0464 2.56453 66.9838ZM74.4334 35.0057C72.9928 31.7242 69.7165 28.7042 64.417 25.7736C62.4247 24.6726 60.0944 23.4754 57.7107 22.796C58.9406 22.5025 59.9537 22.0988 60.7944 21.5706C63.5379 19.8431 65.0251 16.6585 66.3378 13.8493L66.6403 13.2042C66.7487 12.974 66.7337 12.7043 66.6012 12.4994C66.4815 12.3169 66.2761 12.2171 66.054 12.2156C65.0176 12.2253 63.8314 12.1746 62.5744 12.121C58.5515 11.9482 53.5779 11.7344 50.1886 13.4753C51.1279 10.1104 49.1123 7.06136 47.1606 4.10915C46.4095 2.97162 45.6312 1.7961 45.0321 0.616857C44.9343 0.423171 44.7506 0.30547 44.5301 0.293551C44.2915 0.277907 44.0529 0.397843 43.9242 0.593763C43.2972 1.54729 42.522 2.48815 41.7731 3.39922C40.3904 5.07832 38.9604 6.81553 38.2536 8.82836C37.4008 11.2591 38.0045 13.6131 40.1556 16.1891C36.314 14.329 32.5371 13.3286 28.9176 13.2124C26.3133 10.325 25.6766 6.80882 26.9253 2.17826C27.6064 3.4238 28.6978 4.46523 30.4093 5.51486C30.6547 5.66534 30.8978 5.81358 31.1394 5.96033C33.21 7.21705 35.1662 8.40375 36.7265 10.3473C36.807 10.4471 36.941 10.4762 37.0584 10.4203C37.1856 10.3592 37.2556 10.2199 37.2247 10.0903C36.6301 7.57835 34.4007 6.3112 32.2451 5.08651C30.1798 3.91248 28.0445 2.69897 27.3791 0.391884C27.3121 0.159461 27.1164 0.00600321 26.8801 4.36696e-05C26.6302 -0.0029361 26.4112 0.146797 26.3299 0.381455C24.4129 5.90148 24.7651 10.1037 27.4085 13.2138C27.0969 13.2243 26.8206 13.2384 26.5557 13.2585C19.8224 13.7658 13.6889 17.0682 9.28507 22.5569C4.63736 28.3496 1.7238 35.8951 0.859743 44.377C0.441261 48.4869 0.389327 52.8322 0.696414 58.052C0.733295 58.6837 0.767917 59.3228 0.80254 59.9657C0.954578 62.7876 1.11188 65.704 1.5251 68.5147C1.43177 68.6033 1.38134 68.7203 1.38585 68.8402C1.46639 70.821 2.8099 73.2063 4.0405 74.7782C5.06939 76.093 6.12538 76.9177 7.26642 77.2968C7.35222 77.4644 7.5005 77.5769 7.68791 77.6164C8.10414 77.7118 8.52864 77.7915 8.94712 77.8526C10.3034 78.079 11.68 78.1744 13.0461 78.1744C16.6589 78.1744 20.1979 77.5099 23.0919 76.8603C28.0302 75.7511 32.9104 74.3573 37.4866 73.0246C44.868 70.8747 54.0543 68.1981 59.1476 61.2001C64.0354 54.4837 64.9905 44.716 61.523 36.8934C61.094 35.9257 60.5942 34.9386 60.035 33.9553C61.2934 34.4164 62.8748 34.6816 64.7436 34.7442C65.3292 34.7643 65.9298 34.7665 66.5109 34.7695C68.8705 34.7799 71.3106 34.7904 73.4452 35.9503C73.7244 36.1015 74.0353 36.0709 74.2573 35.8713C74.4959 35.656 74.5667 35.3081 74.4334 35.0057Z" fill="#1F3813"/>
<path fill-rule="evenodd" clip-rule="evenodd" d="M48.9578 20.6039C50.624 19.2699 53.7769 18.8606 55.6722 19.8515C55.823 19.9308 55.7455 20.1702 55.588 20.1702C54.4904 20.172 53.424 20.044 52.3272 20.1902C51.233 20.3357 50.3098 20.8416 49.2906 21.2151C48.9688 21.3327 48.6816 20.825 48.9578 20.6039Z" fill="#1F3813"/>
<path fill-rule="evenodd" clip-rule="evenodd" d="M52.4273 16.4168C52.7541 16.3356 52.9408 16.7784 52.6468 16.9361C51.0874 17.7739 49.8253 18.6796 48.759 20.0593C48.3946 20.5302 47.6321 20.1273 47.9261 19.5932C48.7828 18.037 50.6804 16.8494 52.4273 16.4168Z" fill="#1F3813"/>
<path fill-rule="evenodd" clip-rule="evenodd" d="M45.6053 11.6264C45.6848 11.9107 45.8561 12.0206 45.8779 12.3758C45.9161 13.0193 45.8249 13.669 45.6972 14.2977C45.5306 15.1117 45.1607 17.138 44.174 17.3662C44.04 17.3974 43.9177 17.3008 43.9139 17.1645C43.9014 16.7874 44.1148 16.5015 44.29 16.1751C44.5867 15.6197 44.7697 15.0019 44.9387 14.3982C45.0867 13.8661 45.1965 13.3145 45.2899 12.77C45.3258 12.5651 45.5158 11.8765 45.487 11.6576C45.4768 11.5812 45.5835 11.5477 45.6053 11.6264Z" fill="#1F3813"/>
<path fill-rule="evenodd" clip-rule="evenodd" d="M43.4692 11.7196C43.7524 12.4419 43.885 13.2396 43.9018 14.0279C43.9173 14.7387 43.9911 15.9157 43.422 16.3653C43.3005 16.4618 43.133 16.3769 43.0625 16.2515C42.7573 15.7097 43.058 14.8612 43.0871 14.2513C43.1259 13.4456 43.0619 12.6551 43.0127 11.853C42.9965 11.5861 43.3709 11.4694 43.4692 11.7196Z" fill="#1F3813"/>
<path fill-rule="evenodd" clip-rule="evenodd" d="M32.12 9.72572C32.7508 9.42817 33.6669 10.0926 34.1261 10.4657C34.8713 11.0713 36.095 12.1551 36.0163 13.1969C35.9984 13.4265 35.7531 13.5967 35.5335 13.4664C34.8177 13.0429 34.3921 12.1201 33.8178 11.5215C33.3286 11.0111 32.3517 10.4972 32.0835 9.85314C32.0649 9.80833 32.0685 9.75022 32.12 9.72572Z" fill="#1F3813"/>
<path fill-rule="evenodd" clip-rule="evenodd" d="M31.3507 11.1087C31.6291 11.1297 31.9035 11.1954 32.1688 11.2848C32.0012 11.1338 31.8295 10.9848 31.6571 10.8338C31.5544 10.7431 31.6587 10.5866 31.809 10.6212C32.7577 10.8413 34.0373 11.5659 34.016 12.4821C34.0135 12.562 33.9552 12.6372 33.8747 12.6825C33.9675 12.8796 34.0349 13.0841 34.0464 13.2995C34.0587 13.5257 33.6809 13.5866 33.5511 13.4058C32.9507 12.5688 32.223 12.0196 31.2127 11.5252C30.9942 11.4175 31.0723 11.0878 31.3507 11.1087Z" fill="#1F3813"/>
<path fill-rule="evenodd" clip-rule="evenodd" d="M28.2148 10.6905C29.4979 10.2661 30.9719 11.7374 31.0855 13.1854C31.1096 13.4859 30.7563 13.6146 30.5938 13.4172C30.2363 12.9848 29.9415 12.4982 29.5833 12.0642C29.1908 11.5895 28.6769 11.2547 28.1845 10.943C28.0908 10.8839 28.1184 10.7224 28.2148 10.6905Z" fill="#1F3813"/>
<path fill-rule="evenodd" clip-rule="evenodd" d="M56.3909 27.0617C57.4555 27.4484 58.4636 27.9454 59.4996 28.3799C60.5398 28.8164 61.6633 29.1755 62.6075 29.7405C62.6909 29.7902 62.6783 29.9288 62.5469 29.918C61.6145 29.8413 60.747 29.5421 59.8921 29.2495C58.5571 28.7942 57.1413 28.3315 55.9554 27.6542C55.5006 27.3946 55.8872 26.8787 56.3909 27.0617Z" fill="#1F3813"/>
<path fill-rule="evenodd" clip-rule="evenodd" d="M48.9693 30.0232C49.0359 29.926 49.1142 29.9017 49.2129 29.9503C49.6306 30.1547 49.6679 30.9396 49.8069 31.381C49.9861 31.9515 50.3101 32.3334 50.73 32.6182C50.9201 32.1542 51.024 31.6725 50.9092 31.1423C50.776 30.5283 50.3664 30.0232 50.1536 29.446C50.0234 29.0908 50.3584 28.796 50.6195 29.0473C51.1483 29.5557 51.5558 30.2644 51.7379 31.0309C51.9442 31.9004 51.6545 32.7841 51.2924 33.5388C51.1718 33.7918 50.904 33.8337 50.6948 33.7173C50.0672 33.3654 49.5713 32.8679 49.2663 32.1408C49.0586 31.6466 48.6387 30.5065 48.9693 30.0232Z" fill="#1F3813"/>
<path fill-rule="evenodd" clip-rule="evenodd" d="M44.9037 27.2827C45.2923 27.1064 45.7648 27 46.1862 27.0276C46.5549 27.0512 46.5579 27.6344 46.1847 27.6401C45.9121 27.6442 45.6358 27.6206 45.38 27.6864C45.1716 27.74 45.0228 27.8058 44.8373 27.9439C44.8762 27.9147 44.7846 27.9902 44.7686 28.0056C44.7365 28.0357 44.7067 28.0682 44.6777 28.1015C44.6678 28.1121 44.6587 28.1242 44.6495 28.1356C44.6434 28.1454 44.6319 28.1592 44.6289 28.1632C44.6014 28.2047 44.5762 28.2469 44.5533 28.2908C44.5365 28.3216 44.5228 28.3533 44.5083 28.385C44.5075 28.3923 44.4816 28.4614 44.477 28.476C44.4648 28.5158 44.4548 28.5564 44.4457 28.5978C44.4426 28.6157 44.4312 28.6888 44.4274 28.7059C44.3907 29.0503 44.4602 29.3687 44.5793 29.636C44.6129 29.7107 44.651 29.783 44.693 29.8537C44.7136 29.8878 44.735 29.9211 44.7579 29.9536C44.7213 29.9 44.7976 30.0048 44.8129 30.0226C44.8602 30.0803 44.9121 30.1339 44.9671 30.1835C44.9686 30.1851 44.9724 30.1892 44.9762 30.1924C44.9877 30.2005 44.9991 30.2095 45.0106 30.2184C45.0434 30.242 45.077 30.2631 45.1113 30.2834C45.1258 30.2923 45.1411 30.2996 45.1556 30.3078C45.1617 30.311 45.1617 30.311 45.1648 30.3126C45.1671 30.3126 45.1655 30.3118 45.1694 30.3143C45.2091 30.3305 45.251 30.3427 45.2923 30.3516C45.3113 30.3565 45.3182 30.3581 45.322 30.3598C45.3228 30.3589 45.3289 30.3581 45.3549 30.3598C45.39 30.3614 45.4266 30.3598 45.4617 30.3565C45.4678 30.3541 45.5343 30.3435 45.551 30.3386C45.6335 30.3151 45.5755 30.3362 45.6419 30.3021C45.7533 30.2452 45.7717 30.2257 45.8572 30.1421C46.0541 29.9495 46.1869 29.7001 46.3045 29.4402C46.4862 29.0389 46.6373 28.6108 46.7663 28.1884C46.7847 28.1291 46.877 28.1356 46.8732 28.203C46.8305 28.8813 46.7236 29.5393 46.3953 30.1323C46.2076 30.471 45.919 30.7862 45.5426 30.8642C44.8197 31.0137 44.267 30.2753 44.0418 29.6384C43.8479 29.0893 43.8609 28.4264 44.167 27.9252C44.3434 27.636 44.6067 27.4175 44.9037 27.2827Z" fill="#1F3813"/>
<path fill-rule="evenodd" clip-rule="evenodd" d="M38.3459 27.3306C38.5273 27.2743 38.6196 27.4875 38.514 27.5956C37.9948 28.1206 37.3391 28.4567 36.8931 29.0564C36.4238 29.6872 36.6484 30.3388 37.0362 30.9185C38.2985 29.8116 38.8768 28.49 39.698 27.0863C39.7671 26.9693 39.9635 27.0292 39.966 27.1514C40.0017 28.9069 38.6954 30.6468 37.25 31.7492C37.032 31.9151 36.7641 31.8647 36.6027 31.6656C35.3138 30.0722 36.2815 27.9725 38.3459 27.3306Z" fill="#1F3813"/>
<path fill-rule="evenodd" clip-rule="evenodd" d="M38.8226 22.2047C38.9763 22.1179 39.2057 22.0616 39.4197 21.9846C39.3979 22.1144 39.3909 22.2505 39.3691 22.3726C39.3031 22.7489 39.1647 23.0106 38.9481 23.2536C38.7021 22.8905 38.4458 22.4164 38.8226 22.2047ZM38.6714 24.0207C38.7835 24.1804 39.0122 24.1436 39.1339 24.0283C39.4902 23.6896 39.9463 23.18 39.9278 22.6142C39.9188 22.3636 39.9079 22.0193 39.8259 21.7555C39.8868 21.6965 39.9361 21.6298 39.9592 21.5445C39.9854 21.4493 39.9406 21.3591 39.8695 21.3063C39.5997 21.1057 39.1576 21.366 38.8834 21.475C38.6233 21.5778 38.3484 21.6916 38.1716 21.9346C37.6905 22.5962 38.2953 23.4896 38.6714 24.0207Z" fill="#1F3813"/>
<path fill-rule="evenodd" clip-rule="evenodd" d="M32.6163 19.9448C33.0923 19.611 33.8071 19.5334 34.3538 19.3294C34.8343 19.1499 35.1467 19.9134 34.689 20.1287C34.2539 20.3335 33.7971 20.3449 33.3357 20.4617C32.8543 20.5828 32.8216 21.0509 32.8479 21.4771C33.2739 21.4885 33.5972 21.3952 33.9378 21.0509C34.2439 20.7406 34.5019 20.4774 34.9269 20.3222C34.9987 20.2961 35.0586 20.3867 35.0223 20.4434C34.7471 20.8687 34.54 21.3403 34.2149 21.7334C33.8189 22.2137 33.0632 22.2267 32.4937 22.1797C32.2685 22.1614 32.1404 22.0254 32.115 21.8145C32.0369 21.1677 32.0051 20.3745 32.6163 19.9448Z" fill="#1F3813"/>
<path fill-rule="evenodd" clip-rule="evenodd" d="M33.6852 25.3416C34.0312 25.1411 34.3359 25.6762 33.9899 25.8775C32.6805 26.6369 31.9566 27.4591 31.9437 28.8333C33.3554 28.1394 34.0183 26.8203 34.4384 25.3051C34.5314 24.9713 35.0014 25.0579 35.0238 25.3815C35.1692 27.4327 33.6395 29.3922 31.6493 29.9044C31.3626 29.9774 31.0983 29.7591 31.0897 29.4771C31.0243 27.4913 32.0177 26.3099 33.6852 25.3416Z" fill="#1F3813"/>
<path fill-rule="evenodd" clip-rule="evenodd" d="M46.948 23.1739C47.4737 23.6379 47.6946 24.2197 47.8012 24.8804C47.9006 25.5034 47.9179 26.4314 47.4925 26.9558C47.4204 27.0449 47.2379 27.0582 47.2104 26.919C47.1015 26.3423 47.2903 25.7052 47.2849 25.1146C47.2778 24.4701 47.0678 23.8257 46.8751 23.2122C46.8626 23.1717 46.9174 23.1474 46.948 23.1739Z" fill="#1F3813"/>
<path fill-rule="evenodd" clip-rule="evenodd" d="M44.8997 21.3919C44.8768 21.8673 44.8232 22.3501 44.7072 22.7999C44.5905 23.2547 44.471 23.8941 44.137 24.105C44.0292 24.1726 43.9291 24.0844 43.9168 23.9237C43.8814 23.4689 44.1288 23.0397 44.2483 22.6277C44.3785 22.1803 44.5163 21.733 44.6842 21.3095C44.7384 21.1727 44.9074 21.2295 44.8997 21.3919Z" fill="#1F3813"/>
<path fill-rule="evenodd" clip-rule="evenodd" d="M42.749 21.1992C43.0543 20.9013 43.3449 20.595 43.6585 20.3034C43.7559 20.2122 43.9532 20.3097 43.9061 20.4259C43.7468 20.8226 43.5611 21.1999 43.2549 21.534C42.9842 21.8291 42.6169 22.2119 42.1431 22.1973C42.0202 22.1931 41.9063 22.0915 41.9492 21.9836C42.0829 21.6495 42.4782 21.4623 42.749 21.1992Z" fill="#1F3813"/>
<path fill-rule="evenodd" clip-rule="evenodd" d="M39.7946 18.4454C40.1322 18.3527 40.4615 18.3537 40.803 18.3768C40.9686 18.3884 41.0197 18.7822 40.8412 18.8256C40.5559 18.8941 40.2694 18.953 39.9835 19.0177C39.7001 19.0823 39.3909 19.3169 39.1044 19.2696C39.0196 19.2551 38.9426 19.1209 38.9996 18.9945C39.1703 18.6123 39.5112 18.5235 39.7946 18.4454Z" fill="#1F3813"/>
<path fill-rule="evenodd" clip-rule="evenodd" d="M36.1244 17.9687C37.0042 17.7216 37.9313 17.5556 38.832 17.4224C38.9876 17.3992 39.0403 17.6106 38.893 17.6714C38.0559 18.0159 37.0733 18.3827 36.1608 18.2669C36.007 18.2476 35.957 18.0159 36.1244 17.9687Z" fill="#1F3813"/>
<path fill-rule="evenodd" clip-rule="evenodd" d="M56.682 36.8642C56.6264 36.777 56.7205 36.6442 56.8065 36.6806C58.8464 37.5241 59.0857 40.2752 58.2929 42.2574C58.2099 42.4655 57.9446 42.5197 57.7853 42.4089C56.307 41.3784 54.7302 39.1408 56.6197 37.5427C56.8294 37.3658 56.9999 37.7322 56.8687 37.9234C56.4278 38.5655 56.0173 39.2093 56.4041 40.0248C56.6938 40.6339 57.2555 41.062 57.789 41.4267C58.0135 40.6796 58.0735 39.8996 57.9002 39.1162C57.7112 38.2609 57.1229 37.5638 56.682 36.8642Z" fill="#1F3813"/>
<path fill-rule="evenodd" clip-rule="evenodd" d="M47.6584 36.3051C47.8325 36.1272 48.1312 35.9664 48.352 35.7729C48.376 35.9842 48.395 36.1955 48.3913 36.4082C48.3804 36.9674 48.2026 37.4419 47.9163 37.8944C47.5389 37.4206 47.1652 36.808 47.6584 36.3051ZM46.9699 36.384C46.6363 37.1765 47.2337 37.9527 47.7422 38.524C47.8653 38.6627 48.0759 38.6072 48.1706 38.4734C49.0004 37.3053 49.0426 36.0653 48.427 34.7919C48.3862 34.7065 48.2383 34.7442 48.2449 34.8381C48.2529 34.9548 48.2653 35.0715 48.2798 35.1874C47.7699 35.2991 47.1309 36.0027 46.9699 36.384Z" fill="#1F3813"/>
<path fill-rule="evenodd" clip-rule="evenodd" d="M42.8417 34.6345C43.1749 34.0355 43.7665 33.8546 44.2136 33.4594C44.1037 33.8399 44.1245 34.2572 44.074 34.65C43.98 35.3753 43.7031 36.0028 43.2744 36.5602C42.8425 36.0093 42.4708 35.3019 42.8417 34.6345ZM42.0245 34.6532C41.7291 35.7379 42.2468 36.7338 42.9734 37.5104C43.1227 37.6701 43.4157 37.6913 43.5666 37.5194C44.3292 36.6498 45.604 34.311 44.4135 33.2703C44.4103 33.2678 44.4055 33.2662 44.4023 33.2638C44.4135 33.2507 44.4256 33.241 44.436 33.2271C44.5669 33.0592 44.4906 32.8433 44.2738 32.8196C43.3884 32.7259 42.2533 33.8114 42.0245 34.6532Z" fill="#1F3813"/>
<path fill-rule="evenodd" clip-rule="evenodd" d="M26.7393 23.1855C27.206 22.482 27.8883 21.8392 28.7532 21.8081C29.1595 21.793 29.5717 21.8612 29.9375 22.053C30.1487 22.1629 30.346 22.3092 30.5632 22.382C30.0913 22.9141 29.5849 23.4501 28.8805 23.6191C28.1054 23.8041 27.3929 23.5956 26.7393 23.1855ZM26.1873 23.1325C26.1144 23.2553 26.1659 23.4008 26.2748 23.4766C27.8486 24.5834 30.0589 24.3097 30.8811 22.4237C31.0077 22.4062 31.1211 22.2842 31.0769 22.1447C30.8009 21.282 29.2802 21.1297 28.5427 21.2874C27.5004 21.5102 26.7319 22.2145 26.1873 23.1325Z" fill="#1F3813"/>
<path fill-rule="evenodd" clip-rule="evenodd" d="M23.049 19.5364C23.3351 19.1751 23.683 18.986 24.2972 19.003C24.6007 19.0115 25.0143 19.0897 25.3725 19.0728C25.1673 19.2645 24.9612 19.4549 24.7021 19.5827C24.1696 19.8467 23.5855 19.7274 23.049 19.5364ZM22.2479 19.5194C22.1781 19.6498 22.1829 19.848 22.3731 19.9165C23.118 20.1832 24.0689 20.459 24.8392 20.086C25.4645 19.7841 25.8543 19.2684 26.1388 18.7369C26.1991 18.6254 26.0596 18.5348 25.9407 18.6039C25.6966 18.3503 25.2719 18.3985 24.901 18.3725C24.5278 18.347 24.1482 18.3112 23.7757 18.3659C22.9983 18.4794 22.5522 18.9508 22.2479 19.5194Z" fill="#1F3813"/>
<path fill-rule="evenodd" clip-rule="evenodd" d="M13.3618 23.5011C13.3221 23.5018 13.2824 23.5011 13.2419 23.4998C13.2318 23.4991 13.2267 23.4991 13.2208 23.4991C13.2191 23.4991 13.2182 23.4985 13.2157 23.4985C13.1938 23.4945 13.1718 23.4886 13.1507 23.4833C13.1498 23.4826 13.149 23.4826 13.1473 23.4819C13.149 23.478 13.1507 23.474 13.1515 23.4707C13.1566 23.4621 13.1625 23.4542 13.1684 23.4463C13.1777 23.4344 13.2047 23.4072 13.2174 23.3947C13.2402 23.3749 13.2622 23.3544 13.2883 23.3365C13.323 23.3114 13.3585 23.2883 13.3956 23.2658C13.4091 23.2598 13.4944 23.2142 13.5096 23.2069C13.6363 23.1481 13.7664 23.0959 13.9015 23.0509C14.1262 22.9762 14.3593 22.9273 14.5933 22.8817C14.5097 22.9419 14.4396 22.9967 14.4066 23.0172C14.1744 23.1574 14.0451 23.2896 13.7943 23.392C13.7495 23.4106 13.7056 23.4277 13.66 23.4436C13.6448 23.4463 13.5713 23.4681 13.5561 23.4714C13.5105 23.4813 13.464 23.4905 13.4167 23.4972C13.41 23.4978 13.4134 23.4978 13.4091 23.4985C13.3931 23.4998 13.3779 23.5005 13.3618 23.5011ZM12.5721 23.9301C12.9775 24.2065 13.5308 24.1635 13.986 23.983C14.2766 23.8687 14.5409 23.7001 14.7546 23.5097C14.8991 23.3821 14.9979 23.2413 15.0849 23.086C15.1448 22.9795 15.2073 22.8539 15.1567 22.7435C15.4134 22.5796 15.318 22.1618 14.9278 22.2002C14.4286 22.2497 13.9286 22.3648 13.4691 22.5241C13.1819 22.6239 12.8838 22.7535 12.6684 22.9359C12.3567 23.1997 12.1642 23.6518 12.5721 23.9301Z" fill="#1F3813"/>
<path fill-rule="evenodd" clip-rule="evenodd" d="M18.4218 25.7432C18.8393 25.4846 19.3642 25.0167 19.9079 25.1036C20.053 25.127 20.1058 25.2583 20.086 25.367C20.0238 25.7077 19.6299 25.856 19.3236 26.0388C18.9674 26.2498 18.615 26.4633 18.3116 26.7291C17.7612 27.2124 18.3973 27.773 18.9147 28.1572C19.2445 27.8366 19.4367 27.4886 19.4914 27.0311C19.5357 26.6663 19.5385 26.3392 19.7053 25.9977C19.7769 25.8511 20.0163 25.8294 20.0775 25.9993C20.4554 27.0489 20.1369 28.1016 19.22 28.8612C19.0522 28.9997 18.8289 28.9699 18.6621 28.8539C17.8658 28.3014 16.8981 27.5378 17.422 26.593C17.6199 26.2361 18.06 25.9671 18.4218 25.7432Z" fill="#1F3813"/>
<path fill-rule="evenodd" clip-rule="evenodd" d="M56.0615 46.5047C56.0127 46.4128 56.1301 46.2701 56.2446 46.348C58.0608 47.5819 58.0693 49.2744 57.0166 50.9447C56.8767 51.1654 56.578 51.1958 56.3386 51.099C55.5676 50.7839 54.8595 50.3565 54.7722 49.5673C54.7158 49.0652 55.099 48.1291 55.4305 47.7386C55.6014 47.5368 56.0409 47.5146 56.1047 47.8206C56.2005 48.276 55.9272 48.7182 55.7817 49.1505C55.6079 49.6649 55.946 49.934 56.3865 50.1498C56.6879 49.6345 56.8926 49.1021 56.8569 48.5024C56.8156 47.7936 56.394 47.1348 56.0615 46.5047Z" fill="#1F3813"/>
<path fill-rule="evenodd" clip-rule="evenodd" d="M48.7917 46.4416C49.1223 46.1536 49.6978 46.5328 49.4577 46.858C49.2653 47.1194 48.9823 47.4431 48.8689 47.6726C48.8117 47.7866 48.7698 47.9036 48.7403 48.0237C48.7174 48.1202 48.7374 48.0115 48.7288 48.105C48.725 48.1567 48.726 48.2076 48.7307 48.2593C48.7336 48.2767 48.7383 48.2942 48.7431 48.3109C48.7488 48.333 48.7564 48.3535 48.765 48.374C48.766 48.377 48.765 48.3755 48.766 48.3778C48.7812 48.4044 48.7993 48.431 48.8193 48.4561C48.8327 48.4682 48.846 48.4796 48.8603 48.491C48.867 48.4964 48.8736 48.5009 48.8803 48.5062C48.8965 48.5146 48.9308 48.529 48.9537 48.5381C48.9832 48.5457 49.0128 48.5533 49.0433 48.5587C49.0623 48.5602 49.0814 48.5609 49.1014 48.5609C49.1271 48.5609 49.1519 48.5587 49.1766 48.5564C49.1833 48.5533 49.2672 48.5419 49.2891 48.5366C49.3062 48.5328 49.3215 48.529 49.3377 48.5245C49.3405 48.5229 49.3386 48.5237 49.3424 48.5222C49.3929 48.504 49.4425 48.4819 49.4892 48.4584C49.5092 48.4485 49.5159 48.4454 49.5206 48.4439C49.5244 48.4409 49.5302 48.4356 49.5502 48.4226C49.5997 48.3907 49.6445 48.355 49.6874 48.3185C49.7026 48.3056 49.7169 48.2927 49.7312 48.279C49.736 48.2752 49.7379 48.2729 49.7407 48.2707C49.7445 48.2669 49.7464 48.2638 49.7522 48.2585C49.795 48.2122 49.8332 48.1628 49.8694 48.1126C50.0066 47.9234 50.0885 47.703 50.1285 47.4591C50.1552 47.298 50.1743 47.1354 50.1857 46.9735C50.2009 46.7744 50.2534 46.5867 50.2924 46.3907C50.3086 46.3101 50.4554 46.3056 50.4992 46.3702C50.6211 46.5464 50.7317 46.7136 50.7726 46.9142C50.8127 47.1103 50.8317 47.3018 50.8127 47.5001C50.7831 47.82 50.6888 48.1255 50.5144 48.415C50.2562 48.8451 49.7512 49.1757 49.1471 49.2175C48.5764 49.2578 48.1066 48.9379 47.9351 48.5245C47.695 47.9469 48.0761 47.2828 48.4477 46.801C48.5478 46.6711 48.6631 46.554 48.7917 46.4416Z" fill="#1F3813"/>
<path fill-rule="evenodd" clip-rule="evenodd" d="M42.2747 43.4379C42.4101 43.4104 42.5588 43.4584 42.6261 43.5574C42.9359 44.0114 42.3588 44.5779 42.1516 45.0113C41.9348 45.4646 41.9622 45.8408 42.2083 46.2149C42.6137 45.9151 42.881 45.5665 42.8669 45.0778C42.8545 44.616 42.6721 44.2073 42.7934 43.7434C42.8323 43.5928 43.1006 43.5391 43.2271 43.6529C43.7335 44.1133 43.93 44.7299 43.9123 45.3366C43.8893 46.1202 43.2032 46.7184 42.4685 47.1682C42.2552 47.2983 41.8879 47.3654 41.6922 47.159C41.1416 46.5777 40.8416 46.0021 40.9921 45.2687C41.0584 44.9435 41.2603 44.6274 41.4338 44.3325C41.6365 43.9881 41.7692 43.5391 42.2747 43.4379Z" fill="#1F3813"/>
<path fill-rule="evenodd" clip-rule="evenodd" d="M32.976 39.1883C33.3803 38.6589 34.2058 38.6297 34.5265 38.0695C34.5365 38.0526 34.5372 38.0341 34.5426 38.0164C34.3638 38.9944 34.2848 39.8424 33.5683 40.5649C33.1486 40.1963 32.6262 39.6461 32.976 39.1883ZM32.1551 39.066C31.8053 40.0016 32.6507 40.8296 33.2882 41.382C33.467 41.5367 33.6764 41.539 33.8583 41.3905C34.9569 40.4987 35.3719 38.9529 34.7282 37.6725C34.7022 37.6217 34.6178 37.6317 34.6063 37.6879C34.5886 37.7725 34.5725 37.8556 34.5572 37.938C34.5541 37.8295 34.4866 37.7279 34.3738 37.6956C33.6404 37.4894 32.416 38.3673 32.1551 39.066Z" fill="#1F3813"/>
<path fill-rule="evenodd" clip-rule="evenodd" d="M28.3883 35.7187C28.5776 35.7365 28.7506 35.9348 28.5604 36.0565C27.9791 36.4286 27.2581 36.5345 26.6831 36.9353C26.0216 37.397 25.9377 38.1084 26.0099 38.769C27.487 38.1921 28.1432 37.1415 28.6812 35.8976C28.7587 35.7187 29.1264 35.7351 29.1129 35.9427C29.0003 37.6525 27.7601 38.9343 25.7719 39.5548C25.5754 39.6156 25.3051 39.4818 25.2708 39.3208C25.0851 38.4569 25.1032 37.6425 25.6962 36.8781C26.2036 36.2232 27.4221 35.627 28.3883 35.7187Z" fill="#1F3813"/>
<path fill-rule="evenodd" clip-rule="evenodd" d="M20.6366 31.5179C21.0432 31.1487 22.0741 30.7871 22.6188 30.9167C22.7417 30.946 22.8342 31.1034 22.7485 31.2065C22.4466 31.5708 21.9262 31.6057 21.487 31.7791C20.8376 32.0362 20.9051 32.5315 21.0902 33.0324C21.6114 32.9042 22.0104 32.6841 22.3336 32.2292C22.6105 31.8398 22.7827 31.3542 22.9928 30.932C23.0376 30.8429 23.1999 30.8874 23.1931 30.9822C23.1445 31.6085 23.099 32.2292 22.7311 32.7788C22.3434 33.3577 21.6364 33.6218 20.9483 33.7688C20.7352 33.8147 20.5615 33.7026 20.4901 33.5221C20.2261 32.8492 20.0213 32.078 20.6366 31.5179Z" fill="#1F3813"/>
<path fill-rule="evenodd" clip-rule="evenodd" d="M20.6118 41.5069C20.68 41.5162 20.7473 41.581 20.7611 41.6399C20.8892 42.2217 19.898 42.9279 19.5801 43.3946C19.0415 44.185 18.9312 44.9422 19.7366 45.4298C20.2566 44.6934 20.4115 43.8944 20.551 43.0171C20.5907 42.764 21.0198 42.7978 21.0847 43.0192C21.4643 44.1059 21.0004 45.263 20.2493 46.1396C20.0887 46.3273 19.8883 46.3712 19.6458 46.2791C18.4348 45.8196 17.9943 44.8782 18.4161 43.7844C18.6627 43.1465 19.6709 41.376 20.6118 41.5069Z" fill="#1F3813"/>
<path fill-rule="evenodd" clip-rule="evenodd" d="M15.9402 38.0477C16.0848 38.0597 16.1513 38.2125 16.0945 38.3589C15.9353 38.7704 15.5443 38.9997 15.3083 39.369C15.0647 39.751 14.9498 40.2015 14.9644 40.6599C15.4834 40.4689 15.9118 39.9882 16.2302 39.4995C16.588 38.9503 16.6406 38.3581 16.8489 37.7556C16.8863 37.6498 16.9997 37.5933 17.0786 37.6872C17.5534 38.2587 17.0468 39.3276 16.7568 39.8553C16.2931 40.6997 15.5616 41.3977 14.6799 41.4988C14.5408 41.5147 14.3844 41.3683 14.3588 41.2131C14.2412 40.4872 14.3554 39.8473 14.6612 39.201C14.9007 38.6972 15.4031 38.0024 15.9402 38.0477Z" fill="#1F3813"/>
<path fill-rule="evenodd" clip-rule="evenodd" d="M12.994 31.9207C13.1853 31.9731 13.3285 32.1164 13.3267 32.2958C13.3231 32.5103 13.1409 32.6826 12.8771 32.6819C12.326 32.6819 12.1792 32.714 11.8619 33.1713C11.3788 33.8691 11.1405 34.8809 11.2247 35.7431C12.1058 35.31 12.5318 34.4877 12.9469 33.6897C13.0321 33.5268 13.2959 33.6247 13.3058 33.7743C13.3874 35.0532 12.3813 36.267 10.9846 36.6594C10.7625 36.722 10.4978 36.581 10.448 36.3876C10.1371 35.1769 10.6628 31.2738 12.994 31.9207Z" fill="#1F3813"/>
<path fill-rule="evenodd" clip-rule="evenodd" d="M8.64541 28.9547C8.74854 28.9608 8.8555 29.0181 8.87746 29.1181C8.9529 29.4667 8.69984 29.7413 8.53273 30.0325C8.42291 30.2255 8.33696 30.4515 8.32932 30.5949C8.32741 30.6288 8.32932 30.6627 8.33219 30.6966C8.33505 30.7027 8.3446 30.7653 8.34842 30.781C8.35415 30.8009 8.35511 30.807 8.35702 30.814C8.35893 30.8157 8.35797 30.814 8.36179 30.8209C8.37898 30.8557 8.40094 30.8879 8.42386 30.92C8.3532 30.8201 8.53464 30.9896 8.50217 30.9818C8.52509 30.9948 8.54705 31.0078 8.57092 31.02C8.58047 31.0252 8.5862 31.0278 8.59098 31.0313C8.59766 31.0313 8.60817 31.0339 8.62918 31.04C8.65496 31.0469 8.6817 31.0513 8.70844 31.0556C8.72085 31.0556 8.77528 31.0617 8.79247 31.0617C8.80489 31.0626 8.85359 31.0591 8.87269 31.0582C8.90611 31.053 8.93858 31.0469 8.97105 31.0391C9.01497 31.0296 9.05699 31.0157 9.09996 31.0017C9.00542 31.0322 9.14198 30.9809 9.16012 30.9722C9.28904 30.9105 9.26899 30.9183 9.3769 30.8227C9.70635 30.5315 9.93363 29.8882 10.0797 29.4475C10.0921 29.4119 10.158 29.3954 10.1771 29.4371C10.4827 30.1169 10.4321 30.7531 9.92694 31.3381C9.56884 31.7528 8.96054 31.9327 8.40285 31.8119C7.81556 31.685 7.47751 31.2156 7.41449 30.6958C7.37533 30.3846 7.48802 30.0621 7.62458 29.7813C7.79647 29.4249 8.16221 28.926 8.64541 28.9547Z" fill="#1F3813"/>
<path fill-rule="evenodd" clip-rule="evenodd" d="M8.01972 39.5698C8.32099 39.5623 8.4709 40.0592 8.17322 40.196C7.72778 40.4011 7.45019 40.6215 7.27302 41.1245C7.12525 41.5454 7.06859 42.0895 7.27947 42.4975C7.52694 42.9755 8.21913 42.4147 8.39056 42.1442C8.75495 41.5667 8.80229 40.6678 8.66027 40.0068C8.62153 39.8274 8.82094 39.715 8.94575 39.8366C9.64942 40.5273 9.39048 41.8615 8.92638 42.6199C8.55052 43.2338 7.57715 43.7201 6.95525 43.2285C5.83842 42.3448 6.60306 39.604 8.01972 39.5698Z" fill="#1F3813"/>
<path fill-rule="evenodd" clip-rule="evenodd" d="M10.5705 42.4815C10.8864 42.3841 11.0533 42.7419 10.9475 43.0032C10.8401 43.2701 10.5799 43.4658 10.4341 43.7181C10.3361 43.8876 10.2718 44.089 10.2569 44.2864C10.2302 44.6475 10.3745 44.9284 10.5838 45.1454C10.7429 45.3108 10.9459 45.3714 11.0972 45.3305C11.0996 45.3305 11.1803 45.283 11.1482 45.31C11.2626 45.2167 11.2125 45.2412 11.305 45.1291C11.3873 45.0291 11.4798 44.7966 11.5574 44.6213C11.566 44.5902 11.5715 44.5599 11.5903 44.5272C11.6154 44.4797 11.6271 44.4305 11.6389 44.3822C11.6499 44.3298 11.6585 44.2733 11.6655 44.2151C11.675 44.089 11.6726 43.9605 11.7024 43.8327C11.6546 43.809 11.6185 43.759 11.6389 43.7009C11.6726 43.6034 11.7416 43.4691 11.6914 43.3749C11.6522 43.3012 11.675 43.2095 11.7463 43.1727C11.7941 43.1473 11.8513 43.153 11.8952 43.1866C11.8984 43.1776 11.8999 43.1678 11.9023 43.1579C11.9423 43.0212 12.1641 42.9974 12.1884 43.1596C12.2339 43.4626 12.2676 43.7607 12.288 44.0661C12.3076 44.1333 12.3224 44.2037 12.3326 44.279C12.3624 44.5001 12.2989 44.668 12.1955 44.8506C12.2495 45.4509 11.976 46.0225 11.4108 46.2485C10.9052 46.4516 10.3808 46.2256 9.98332 45.8939C9.5514 45.5328 9.34367 44.9112 9.38521 44.3462C9.43381 43.6755 9.91512 42.683 10.5705 42.4815Z" fill="#1F3813"/>
<path fill-rule="evenodd" clip-rule="evenodd" d="M7.13481 48.3116C7.31591 48.3735 7.39197 48.5608 7.24709 48.6943C7.02343 48.9001 6.71828 48.9331 6.47832 49.1253C6.20214 49.3472 6.21391 49.7226 6.28001 50.0161C6.38686 50.4985 6.7391 50.9134 7.19095 51.1867C7.67901 50.4109 7.64823 49.5731 7.63736 48.6638C7.63646 48.5448 7.82752 48.4981 7.89 48.6051C8.58089 49.7685 8.6144 50.956 7.65185 52.006C7.51965 52.1499 7.27516 52.1347 7.10855 52.0639C6.14781 51.6579 5.53207 50.7871 5.4379 49.8585C5.36455 49.1325 6.18946 47.99 7.13481 48.3116Z" fill="#1F3813"/>
<path fill-rule="evenodd" clip-rule="evenodd" d="M15.0485 52.8281C15.4278 52.4784 15.8849 52.0819 16.4191 51.9049C16.2599 52.3416 16.099 52.7813 15.8524 53.1822C15.6632 53.4909 15.4286 53.9109 15.0537 54.0872C14.9004 54.1589 14.4219 54.254 14.3114 54.0586C14.1102 53.7053 14.8063 53.052 15.0485 52.8281ZM13.6728 54.6666C14.4955 55.404 15.7394 54.8312 16.2693 54.1457C16.8729 53.3644 17.4088 52.2977 17.2427 51.3474C17.1939 51.0716 16.777 51.1118 16.6529 51.3116C16.5673 51.2179 16.4286 51.1616 16.2419 51.2011C15.0083 51.4667 12.3869 53.5136 13.6728 54.6666Z" fill="#1F3813"/>
<path fill-rule="evenodd" clip-rule="evenodd" d="M21.2382 51.3209C21.0049 51.8823 20.6747 52.3848 20.1832 52.7878C20.1722 52.5475 20.2201 52.3081 20.3668 52.0855C20.5936 51.7416 20.9329 51.5595 21.2382 51.3209ZM19.3653 53.6965C19.4695 53.9663 19.8043 54.1484 20.1021 53.984C21.429 53.2464 22.4434 51.8596 22.1584 50.3995C22.1022 50.1086 21.6125 50.1221 21.5425 50.3969C21.5148 50.5023 21.4844 50.6052 21.453 50.7089C21.4115 50.6819 21.3599 50.665 21.2981 50.6616C19.7397 50.5925 18.9255 52.5559 19.3653 53.6965Z" fill="#1F3813"/>
<path fill-rule="evenodd" clip-rule="evenodd" d="M45.1455 51.6937C45.3207 51.6996 45.4765 51.874 45.3605 52.0111C44.988 52.456 44.4074 52.687 44.0578 53.1699C43.633 53.7601 43.749 54.3794 44.1676 54.8869C45.1818 53.8652 45.5897 52.6587 46.0924 51.3896C46.234 51.0327 46.8606 51.0886 46.8721 51.4761C46.9181 53.0373 45.7756 54.7661 44.5145 55.8549C44.3242 56.0196 43.9711 56.0181 43.787 55.8459C43.0498 55.1596 42.7649 54.3406 43.0162 53.4352C43.2242 52.6908 44.157 51.6602 45.1455 51.6937Z" fill="#1F3813"/>
<path fill-rule="evenodd" clip-rule="evenodd" d="M39.0174 50.1867C39.4584 50.1597 39.4554 50.9496 39.0159 50.9699C38.274 51.0045 37.3588 52.4009 37.7113 53.2398C37.9127 53.7197 38.6472 53.0582 38.8035 52.8546C39.2158 52.319 39.5048 51.6719 39.8492 51.0822C39.895 51.0028 39.9945 51.0712 39.9591 51.1557C39.6044 52.0005 39.3706 53.0861 38.743 53.7332C38.2983 54.1919 37.5122 54.1505 37.1737 53.5854C36.8175 52.9906 37.1029 52.0782 37.361 51.5173C37.6929 50.7958 38.2917 50.2315 39.0174 50.1867Z" fill="#1F3813"/>
<path fill-rule="evenodd" clip-rule="evenodd" d="M32.7136 47.3433C33.0931 47.1179 33.5564 47.674 33.1923 47.9283C32.7658 48.2279 32.476 48.6202 32.2333 49.0539C32.1051 49.284 31.676 50.1381 32.0162 50.3518C32.9179 50.9189 33.435 47.9299 33.4034 47.4775C33.3931 47.3363 33.6136 47.2528 33.7145 47.3628C34.3059 48.0079 33.9786 49.1085 33.7196 49.8144C33.4196 50.6311 32.8828 51.2746 31.8658 51.131C31.0068 51.0101 31.011 50.0445 31.1666 49.4681C31.382 48.6725 31.9521 47.7957 32.7136 47.3433Z" fill="#1F3813"/>
<path fill-rule="evenodd" clip-rule="evenodd" d="M26.1964 45.435C26.5995 45.1295 26.9536 45.8421 26.5671 46.1494C26.2249 46.4225 26.0676 46.8722 25.9902 47.3066C25.9411 47.5806 25.9198 48.1533 26.1664 48.3436C26.4675 48.5757 27.0856 47.9032 27.2113 47.6634C27.4935 47.1249 27.6033 46.4737 27.8088 45.8976C27.8713 45.7235 28.1313 45.7329 28.1266 45.9437C28.1076 46.7741 28.185 47.8085 27.6065 48.4665C27.1481 48.9871 26.4122 49.4539 25.7586 49.0938C25.2172 48.7959 25.1278 47.9732 25.1792 47.3997C25.2496 46.6136 25.595 45.8916 26.1964 45.435Z" fill="#1F3813"/>
<path fill-rule="evenodd" clip-rule="evenodd" d="M54.7124 56.3836C54.7243 56.3047 54.7444 56.2211 54.7646 56.1384C55.0913 56.061 55.2836 55.8041 55.5014 55.5776C55.625 55.4495 55.744 55.3237 55.8566 55.1949C55.8731 55.2503 55.8868 55.3065 55.896 55.3636C55.8978 55.3768 55.9005 55.3979 55.9014 55.4081C55.9042 55.4245 55.9133 55.4877 55.9179 55.5174C55.9317 55.6354 55.9344 55.7549 55.9188 55.8736C55.9179 55.879 55.9179 55.8798 55.917 55.8837C55.9161 55.8892 55.9143 55.8939 55.9133 55.9033C55.9069 55.9322 55.9005 55.9618 55.8923 55.9915C55.8767 56.0493 55.8593 56.1071 55.8374 56.1649C55.8291 56.186 55.7806 56.2922 55.7834 56.2914C55.7596 56.3375 55.7349 56.3836 55.7065 56.4281C55.6433 56.5289 55.5719 56.6265 55.4914 56.7171C55.4904 56.7194 55.4895 56.7194 55.4886 56.721C55.4868 56.7233 55.4859 56.7241 55.4831 56.7265C55.463 56.7468 55.4419 56.7679 55.4209 56.7882C55.3797 56.8272 55.3376 56.8655 55.2918 56.9014C55.2488 56.9366 55.2049 56.9702 55.1582 57.0022C55.1554 57.0037 55.1545 57.0045 55.1518 57.0061C55.1316 57.0178 55.1124 57.0295 55.0923 57.0404C55.0401 57.0678 54.9879 57.0943 54.933 57.1154C54.9202 57.1209 54.922 57.1209 54.9165 57.1232C54.9083 57.1248 54.9055 57.1248 54.8836 57.1303C54.8662 57.1342 54.8332 57.1381 54.8085 57.1412C54.7975 57.1404 54.7893 57.1396 54.7801 57.1396C54.7783 57.1389 54.7765 57.1381 54.7746 57.1373C54.7737 57.1373 54.7746 57.1365 54.7737 57.1357C54.7627 57.1186 54.7517 57.1021 54.7417 57.0842C54.7243 57.0397 54.7096 56.9944 54.6996 56.9475C54.6977 56.9389 54.695 56.9147 54.6932 56.9006C54.6913 56.8803 54.6886 56.8592 54.6877 56.8389C54.6803 56.6866 54.6904 56.5343 54.7124 56.3836ZM54.327 54.9012C54.0387 55.3081 53.8995 55.8134 53.8263 56.2836C53.7494 56.7749 53.689 57.5575 54.3325 57.8191C54.8616 58.0347 55.4126 57.8238 55.8154 57.5075C56.2529 57.1646 56.5871 56.6757 56.6951 56.1751C56.8058 55.6557 56.7335 55.0238 56.2328 54.6786C56.5303 54.3654 55.9106 53.7937 55.5426 54.1709C55.3303 54.388 55.1133 54.6021 54.8973 54.8176C54.7298 54.7153 54.4469 54.7325 54.327 54.9012Z" fill="#1F3813"/>
<path fill-rule="evenodd" clip-rule="evenodd" d="M56.2466 55.4932C56.2466 55.4951 56.2476 55.5009 56.2476 55.5009C56.2456 55.4835 56.2456 55.4854 56.2466 55.4932Z" fill="#1F3813"/>
<path fill-rule="evenodd" clip-rule="evenodd" d="M51.4066 53.403C51.5859 53.335 51.7314 53.3616 51.8825 53.4608C52.2861 53.7258 51.5474 54.2676 51.3925 54.4818C51.0621 54.9375 50.8443 55.5089 50.8706 56.0444C50.8706 56.0467 50.8725 56.0483 50.8725 56.0506C50.8809 56.0467 50.8856 56.0452 50.8959 56.0413C51.2235 55.8943 51.4272 55.6496 51.5925 55.3815C51.952 54.7999 52.2101 53.9041 52.1087 53.249C52.0918 53.1388 52.2617 53.0121 52.3697 53.1263C52.9958 53.7939 52.8259 54.8038 52.5105 55.5519C52.2599 56.146 51.4901 57.0739 50.5899 56.9261C48.8834 56.6479 50.466 53.7626 51.4066 53.403Z" fill="#1F3813"/>
<path fill-rule="evenodd" clip-rule="evenodd" d="M47.7578 61.7716C47.8641 61.7805 47.9801 61.8266 48.0293 61.9316C48.2678 62.4463 47.3235 62.4907 47.0463 62.7064C46.7611 62.9278 46.5597 63.3075 46.6419 63.6735C46.7248 64.0476 47.1164 63.9232 47.3726 63.7939C47.6571 63.6517 47.9262 63.419 48.0873 63.1451C48.2356 62.893 48.1622 62.5893 48.3016 62.3364C48.3218 62.3008 48.3685 62.2806 48.408 62.2928C48.7714 62.4051 48.9051 62.8171 48.8237 63.1766C48.7278 63.5992 48.4217 63.9224 48.0921 64.1817C47.5878 64.5784 46.8022 64.9072 46.2454 64.416C45.8087 64.0314 45.8144 63.3762 46.0303 62.8793C46.3091 62.2378 47.0439 61.7151 47.7578 61.7716Z" fill="#1F3813"/>
<path fill-rule="evenodd" clip-rule="evenodd" d="M42.0007 60.8036C42.2964 60.821 42.4289 61.135 42.2293 61.3438C42.091 61.4893 41.8864 61.5708 41.7331 61.7068C41.512 61.9013 41.343 62.1402 41.1897 62.3854C40.9901 62.7049 40.6671 63.2925 40.8799 63.6642C40.947 63.7805 41.2958 63.7244 41.3902 63.7077C41.7356 63.6476 41.8681 63.0956 41.9361 62.8354C42.0098 62.5522 41.9154 61.4149 42.2881 61.3248C42.6741 61.2315 42.8 61.7677 42.8696 62.0144C43.0137 62.519 42.8621 63.1304 42.6617 63.601C42.3113 64.4211 41.2527 65.0254 40.4012 64.4116C39.7111 63.915 39.977 63.0141 40.2827 62.3838C40.5403 61.8515 41.2726 60.7601 42.0007 60.8036Z" fill="#1F3813"/>
<path fill-rule="evenodd" clip-rule="evenodd" d="M37.5078 58.3789C37.491 58.4088 37.4831 58.4059 37.5078 58.3789V58.3789Z" fill="#1F3813"/>
<path fill-rule="evenodd" clip-rule="evenodd" d="M35.6923 58.4447C35.8218 58.3411 35.9547 58.2455 36.0944 58.158C36.2663 58.0508 36.4718 57.9034 36.6759 57.907C36.8835 57.9114 37.0664 58.1806 36.9307 58.3819C36.817 58.5504 36.6444 58.6285 36.4828 58.735C36.4218 58.7759 36.3629 58.8182 36.304 58.8612C36.243 58.9064 36.2519 58.8991 36.1704 58.9692C36.0869 59.0421 36.0081 59.1216 35.9348 59.2063C35.9197 59.2238 35.906 59.2413 35.8916 59.2595C35.8636 59.3004 35.8375 59.3434 35.8142 59.3879C35.8074 59.4018 35.8012 59.4156 35.7944 59.4295C35.7848 59.4587 35.7766 59.4878 35.7697 59.5177C35.769 59.5207 35.769 59.5207 35.7683 59.5228C35.7683 59.5258 35.7683 59.5265 35.7683 59.5309C35.7677 59.544 35.7677 59.5579 35.7683 59.571C35.7718 59.5892 35.7759 59.6067 35.7807 59.6235C35.7834 59.6293 35.7855 59.6345 35.7882 59.6396C35.7923 59.6469 35.7985 59.6578 35.8053 59.668C35.8204 59.687 35.8355 59.7059 35.8519 59.7235C35.8594 59.7315 35.8711 59.7417 35.882 59.7519C35.8971 59.7636 35.9122 59.776 35.9279 59.7862C35.9547 59.8052 35.9834 59.8212 36.0115 59.8373C36.0238 59.8438 36.0362 59.8504 36.0492 59.8569C36.1088 59.8817 36.1711 59.9022 36.2341 59.9182C36.2677 59.927 36.3026 59.9343 36.3369 59.9401C36.3506 59.9416 36.3649 59.9438 36.3793 59.9445C36.4506 59.951 36.5225 59.951 36.5944 59.9467C36.6054 59.9467 36.6259 59.9438 36.6451 59.9416C36.6773 59.9357 36.7095 59.9299 36.7417 59.9219C36.7992 59.908 36.8554 59.8876 36.9109 59.8657C36.9287 59.8577 36.9492 59.8489 36.9602 59.8431C36.9937 59.8248 37.0259 59.8037 37.0575 59.7818C37.0732 59.7672 37.089 59.7526 37.104 59.7373C37.1205 59.7205 37.1362 59.7023 37.152 59.6841L37.1527 59.6833C37.154 59.6819 37.154 59.6819 37.1547 59.6804C37.178 59.6447 37.1965 59.6045 37.215 59.5659C37.2218 59.5404 37.2527 59.4528 37.2595 59.4236C37.2623 59.4076 37.265 59.3915 37.2677 59.3755C37.2698 59.3514 37.2883 59.2063 37.2869 59.2165C37.2903 59.196 37.2938 59.1756 37.2965 59.1559C37.2951 59.1566 37.3047 59.0698 37.3061 59.0523C37.3116 58.9633 37.3095 58.8751 37.3047 58.7868C37.302 58.7306 37.3027 58.681 37.3157 58.6256C37.3273 58.5789 37.3492 58.538 37.3821 58.5045C37.3753 58.5103 37.3732 58.514 37.3691 58.5184C37.3732 58.5118 37.3766 58.5045 37.3801 58.4928C37.4054 58.4133 37.4972 58.3564 37.5705 58.4097C37.6308 58.4534 37.6952 58.4731 37.75 58.5308C37.7986 58.5825 37.8226 58.6621 37.8479 58.7292C37.8972 58.8576 37.9404 58.9867 37.9685 59.1224C38.0164 59.3543 37.9931 59.6067 37.9178 59.83C37.7719 60.2596 37.4698 60.5376 37.0773 60.7002C36.4458 60.9628 35.5594 60.7024 35.1765 60.1079C34.958 59.768 35.0073 59.3171 35.206 58.983C35.3313 58.7708 35.5046 58.5949 35.6923 58.4447Z" fill="#1F3813"/>
<path fill-rule="evenodd" clip-rule="evenodd" d="M28.608 56.8029C28.7308 56.6272 28.864 56.3934 29.0947 56.3623C29.249 56.3424 29.3675 56.426 29.3815 56.5868C29.3977 56.7873 29.2644 56.9312 29.1599 57.0842C29.0737 57.211 28.9951 57.3414 28.9243 57.4774C28.8998 57.5242 28.8773 57.5723 28.8556 57.6212C28.8584 57.6184 28.8226 57.7112 28.8163 57.7303C28.8016 57.7743 28.7904 57.8189 28.7805 57.8642C28.7791 57.872 28.7777 57.8805 28.7763 57.8883C28.7749 57.8997 28.7707 57.9287 28.77 57.94C28.7693 57.9634 28.7707 57.9861 28.7721 58.0095C28.7749 58.0265 28.7798 58.0584 28.7841 58.0725C28.7848 58.0754 28.7841 58.0739 28.7848 58.0761C28.7876 58.081 28.7876 58.0796 28.7932 58.0895C28.796 58.0945 28.7967 58.0966 28.7988 58.1009C28.8016 58.1037 28.8037 58.1058 28.8086 58.1108C28.8135 58.1165 28.8184 58.1207 28.824 58.1257C28.8416 58.1377 28.8605 58.1483 28.8801 58.1583C28.8871 58.1611 28.8949 58.1639 28.9026 58.166C28.9376 58.1774 28.9734 58.1859 29.0099 58.193C29.0162 58.1944 29.0183 58.1944 29.0218 58.1958C29.0274 58.1958 29.0316 58.1965 29.0407 58.1972C29.0758 58.2001 29.1108 58.2008 29.1459 58.2008C29.1824 58.2008 29.2195 58.1986 29.2553 58.1958C29.2616 58.1958 29.2672 58.1944 29.2735 58.1944C29.2869 58.1923 29.3135 58.1894 29.324 58.1873C29.4026 58.1745 29.4797 58.1547 29.5562 58.132C29.5954 58.12 29.634 58.1072 29.6726 58.0931C29.6803 58.0902 29.688 58.0874 29.6957 58.0846C29.6957 58.0839 29.7378 58.0662 29.7497 58.0605C29.8261 58.0265 29.8998 57.9868 29.9713 57.9429C30.0071 57.9216 30.0414 57.8982 30.0751 57.8749C30.0779 57.8727 30.0828 57.8692 30.087 57.8664C30.1053 57.8515 30.1228 57.8373 30.1403 57.8231C30.202 57.7707 30.2588 57.7133 30.3114 57.6524C30.3177 57.6446 30.322 57.6404 30.3255 57.6368C30.329 57.6311 30.3339 57.6234 30.3444 57.6092C30.3703 57.5716 30.3928 57.5327 30.4145 57.4923C30.4208 57.4809 30.4257 57.4682 30.4321 57.4569C30.4335 57.4505 30.451 57.4066 30.4559 57.391C30.4636 57.3669 30.4692 57.3421 30.4748 57.3166C30.4776 57.3052 30.4797 57.2932 30.4818 57.2812V57.2804C30.4875 57.2273 30.4846 57.1735 30.4804 57.1203C30.4783 57.104 30.4748 57.0814 30.4734 57.0729C30.4657 57.0374 30.4552 57.002 30.4447 56.9673C30.4391 56.951 30.4377 56.9453 30.4363 56.9404C30.4356 56.939 30.4349 56.9382 30.4321 56.9305C30.4187 56.8993 30.4061 56.8681 30.3949 56.8362C30.3914 56.827 30.3921 56.8277 30.3907 56.8242C30.3893 56.8199 30.39 56.8214 30.3865 56.815C30.3549 56.7399 30.3156 56.669 30.2736 56.6003C30.2273 56.5238 30.1978 56.4352 30.155 56.3566C30.101 56.2581 30.0463 56.1795 30.0099 56.0725C29.9881 56.0108 30.0527 55.9705 30.1046 55.9775C30.3521 56.0123 30.6207 56.1979 30.7792 56.3899C30.9272 56.5698 31.033 56.771 31.0702 57.0034C31.1382 57.4278 30.991 57.8125 30.7189 58.1327C30.2834 58.6443 29.3949 59.0261 28.7315 58.8108C28.3437 58.6847 28.0961 58.3368 28.1298 57.9202C28.1515 57.6581 28.249 57.4151 28.3703 57.1848C28.4404 57.0516 28.5225 56.9255 28.608 56.8029Z" fill="#1F3813"/>
<path fill-rule="evenodd" clip-rule="evenodd" d="M24.4097 55.0307C24.5018 55.059 24.5458 55.148 24.5279 55.2419C24.486 55.4643 24.2522 55.6189 24.1009 55.7686C23.8692 55.9974 23.6699 56.2594 23.487 56.5298C23.2319 56.9069 22.8111 57.541 22.9294 58.0311C22.9617 58.1659 23.4698 58.0268 23.5344 58.012C23.9002 57.9258 24.0824 57.4591 24.2075 57.1378C24.4516 56.5115 24.4743 55.8322 24.6634 55.1995C24.6812 55.1402 24.7452 55.1112 24.7981 55.1423C25.5187 55.5625 25.0044 57.1322 24.7507 57.6935C24.3828 58.5077 23.4691 59.2089 22.5808 58.699C21.8671 58.2895 22.3429 57.2275 22.6282 56.7106C22.8861 56.2432 23.7551 54.8316 24.4097 55.0307Z" fill="#1F3813"/>
<path fill-rule="evenodd" clip-rule="evenodd" d="M14.8984 59.9037C15.1488 59.7414 15.5907 59.8933 15.4807 60.1738C15.3328 60.5523 15.1374 60.8515 15.2095 61.2652C15.237 61.4268 15.2929 61.5869 15.3849 61.7328C15.4257 61.7964 15.4627 61.8412 15.5025 61.8779C15.5499 61.9213 15.6258 61.9624 15.5869 61.9497C15.6125 61.9587 15.621 61.9624 15.6296 61.9662C15.6305 61.9639 15.6315 61.9609 15.6457 61.9587C15.6135 61.9639 15.7291 61.9153 15.7614 61.8921C15.9729 61.7395 16.1075 61.5031 16.2166 61.2989C16.3617 61.0244 16.5172 60.8463 16.4432 60.5336C16.4195 60.4296 16.3958 60.3242 16.3693 60.2194C16.3579 60.1738 16.3531 59.9905 16.3361 59.9756C16.3029 59.9486 16.3361 59.8903 16.3863 59.9067C16.4963 59.9426 16.5845 59.903 16.6917 59.9658C16.8358 60.0504 16.9572 60.1461 17.052 60.2666C17.3119 60.5965 17.3251 61.0505 17.1838 61.4104C16.9695 61.9565 16.4385 62.7517 15.5878 62.7322C14.0857 62.6993 13.9862 60.4962 14.8984 59.9037Z" fill="#1F3813"/>
<path fill-rule="evenodd" clip-rule="evenodd" d="M10.1257 55.9772C10.4487 55.9602 10.4462 56.4112 10.1916 56.5177C9.68569 56.7292 9.32941 57.0378 9.1529 57.5903C9.01218 58.0268 9.00486 58.5597 9.24563 58.9587C9.53683 59.4412 10.0753 58.8291 10.3421 58.6722C10.9156 58.338 11.1092 57.239 11.0913 56.6098C11.0913 56.5902 11.1197 56.5808 11.1271 56.5996C11.441 57.3422 11.5232 58.731 10.7423 59.2144C10.3633 59.4489 10.1087 59.7695 9.64502 59.8291C9.32616 59.8701 9.04391 59.7533 8.80965 59.5307C8.3037 59.0507 8.33543 58.1172 8.50543 57.4956C8.7161 56.7232 9.32941 56.0181 10.1257 55.9772Z" fill="#1F3813"/>
<path fill-rule="evenodd" clip-rule="evenodd" d="M4.50741 56.0082C4.83198 55.8865 5.11168 56.1393 4.97135 56.4C4.74893 56.8124 4.51886 57.1656 4.44822 57.6246C4.39095 57.9927 4.40431 58.6066 4.73365 58.895C4.84248 58.9898 5.06872 58.8776 5.14605 58.8152C5.36084 58.6422 5.37229 58.2866 5.38661 58.0615C5.42289 57.4966 5.34938 56.9041 5.29592 56.34C5.28256 56.1994 5.50976 56.1409 5.61858 56.2326C6.31736 56.8195 6.51497 57.7628 6.38036 58.5529C6.24863 59.3374 5.4563 60.0895 4.41577 59.7561C3.54802 59.4788 3.39624 58.6113 3.48024 57.939C3.55566 57.3307 3.74181 56.2958 4.50741 56.0082Z" fill="#1F3813"/>
<path fill-rule="evenodd" clip-rule="evenodd" d="M6.13024 63.3186C6.20788 63.2985 6.27471 63.321 6.33884 63.3557C6.67638 64.0606 6.87013 64.8397 6.57377 65.5704C6.1451 65.2325 5.88587 64.5534 5.90409 63.963C5.90882 63.7848 5.93312 63.371 6.13024 63.3186ZM5.46732 63.7348C5.32083 64.8768 5.63811 66.1543 6.61495 66.5721C6.78304 66.6447 6.93494 66.5165 7.0308 66.3681C7.61406 65.4728 7.48782 64.1792 6.86405 63.3912C6.8708 63.371 6.87485 63.3493 6.8762 63.3267C6.91198 62.8783 6.30171 62.6516 6.00805 62.7589C5.66782 62.8815 5.51592 63.3533 5.46732 63.7348Z" fill="#1F3813"/>
<path fill-rule="evenodd" clip-rule="evenodd" d="M9.23409 62.8297C9.91662 62.5605 10.7021 62.8935 11.2298 63.3078C11.4346 63.4686 11.3591 63.7011 11.1892 63.8287L11.2213 63.8252C11.1467 63.9117 11.0183 63.9344 10.8994 63.9204C10.8937 63.9196 10.888 63.9196 10.8833 63.9196C10.8333 63.9108 10.7861 63.8986 10.7464 63.8776C10.6001 63.8016 10.4594 63.7168 10.3122 63.6434C10.2905 63.6329 10.1857 63.5874 10.1668 63.5778C10.1054 63.5551 10.0441 63.535 9.98176 63.5184C9.94117 63.507 9.89869 63.5 9.8562 63.4922C9.84016 63.4913 9.77219 63.4834 9.75047 63.4834C9.72876 63.4834 9.70705 63.4843 9.68628 63.4852C9.65607 63.4896 9.6268 63.4992 9.59754 63.507C9.57677 63.5167 9.54184 63.5306 9.52674 63.5394C9.52296 63.5411 9.52107 63.542 9.51824 63.5429C9.51352 63.5472 9.50974 63.5507 9.50219 63.5577C9.48426 63.5717 9.46915 63.5883 9.4531 63.6049C9.438 63.6242 9.40401 63.6652 9.39268 63.6836C9.37852 63.7054 9.3672 63.729 9.35492 63.7526C9.34548 63.7745 9.3266 63.8156 9.32094 63.8322C9.30678 63.8732 9.29451 63.9152 9.28318 63.9571C9.27846 63.9773 9.26713 64.048 9.26241 64.0716C9.25486 64.1538 9.25297 64.2351 9.25391 64.3172C9.25486 64.3653 9.25769 64.4134 9.26241 64.4614C9.2643 64.4859 9.26618 64.5104 9.26902 64.5349C9.2709 64.5471 9.26996 64.5462 9.2709 64.5532C9.30017 64.7516 9.35209 64.9483 9.42289 65.1388C9.43045 65.1598 9.45688 65.2201 9.46349 65.2349C9.47387 65.2585 9.4852 65.283 9.49558 65.3066C9.53335 65.3905 9.57772 65.4709 9.62775 65.5487C9.63813 65.5653 9.65041 65.581 9.66268 65.5977C9.67684 65.6143 9.69572 65.637 9.70705 65.6483C9.72121 65.6623 9.73631 65.6746 9.75047 65.6877C9.75708 65.692 9.76369 65.6955 9.7703 65.6999C9.78446 65.6929 9.79862 65.6859 9.81278 65.6772C9.8175 65.6737 9.82033 65.6711 9.826 65.6658C9.8562 65.6414 9.88453 65.6143 9.9119 65.5863C9.91946 65.5793 9.93173 65.5653 9.94211 65.5531C9.96477 65.5251 9.98648 65.498 10.0063 65.47C10.0724 65.3783 10.1215 65.2769 10.1904 65.1877C10.3707 64.9518 10.5274 64.6983 10.6954 64.4553C10.8465 64.2395 11.2694 64.3068 11.2487 64.5952C11.2015 65.2288 11.0117 65.9062 10.4679 66.3371C10.046 66.6718 9.52863 66.6779 9.10003 66.3572C8.3939 65.8284 8.30705 64.7228 8.45337 63.9598C8.53928 63.5123 8.74791 63.0211 9.23409 62.8297Z" fill="#1F3813"/>
<path fill-rule="evenodd" clip-rule="evenodd" d="M12.1389 68.7878C12.4525 68.5006 13.0486 68.0528 13.499 68.2842C13.591 68.3324 13.6437 68.4456 13.6116 68.5414C13.5043 68.8635 13.1523 68.9351 12.886 69.1216C12.6277 69.3039 12.4311 69.5336 12.2836 69.8C12.1871 69.9748 12.1434 70.1754 12.1416 70.371C12.1407 70.4942 12.2139 70.659 12.2265 70.6665C12.2372 70.674 12.2416 70.6782 12.2434 70.6807C12.2461 70.679 12.2524 70.6765 12.2685 70.674C12.3444 70.6607 12.4177 70.6182 12.4785 70.5749C12.7948 70.351 13.012 70.0181 13.2094 69.7042C13.4177 69.3763 13.5723 69.0267 13.65 68.6513C13.7215 68.3091 13.5222 67.987 13.5303 67.6532C13.5329 67.5741 13.6178 67.5383 13.6893 67.5691C14.1084 67.7523 14.2594 68.2509 14.305 68.6438C14.3631 69.1449 14.104 69.631 13.8573 70.058C13.541 70.6041 12.8011 71.6812 11.9602 71.3599C11.2935 71.1052 11.2658 70.3369 11.4535 69.7833C11.5831 69.4021 11.8351 69.0658 12.1389 68.7878Z" fill="#1F3813"/>
<path fill-rule="evenodd" clip-rule="evenodd" d="M8.25433 71.256C8.41307 71.0072 8.64256 70.7948 8.96184 70.744C9.24122 70.7 9.50064 70.7906 9.75553 70.6586C9.76913 70.6509 9.78092 70.6391 9.79272 70.6281C9.71834 70.9294 9.65031 71.2323 9.55688 71.5328C9.45801 71.8552 8.85935 73.2288 8.27429 72.5966C7.95682 72.2538 8.02031 71.625 8.25433 71.256ZM7.76543 70.8752C7.36813 71.4651 7.24658 72.3131 7.68107 72.9156C8.13097 73.5411 9.24485 73.4615 9.68387 72.8556C10.3506 71.9339 10.3896 70.6636 10.3596 69.5964C10.3569 69.4991 10.1955 69.439 10.1474 69.5423C10.0068 69.8419 9.91608 70.1499 9.83535 70.4622C9.83172 70.4521 9.83081 70.4411 9.82355 70.4317C9.33465 69.7716 8.11827 70.3522 7.76543 70.8752Z" fill="#1F3813"/>
<path fill-rule="evenodd" clip-rule="evenodd" d="M11.408 72.4378C11.8783 72.2246 12.297 72.395 12.7696 72.4554C12.5606 73.0394 12.0081 73.7695 11.4979 73.4288C11.0623 73.1376 10.8579 72.6878 11.408 72.4378ZM11.0438 74.0993C11.6785 74.523 12.4592 74.2856 12.9232 73.6839C13.2022 73.3214 13.521 72.5536 13.1768 72.1491C13.239 71.941 13.1929 71.6859 13.0001 71.5726C12.3731 71.2067 11.2528 71.5449 10.7396 72.0417C10.0941 72.6677 10.3454 73.6327 11.0438 74.0993Z" fill="#1F3813"/>
<path fill-rule="evenodd" clip-rule="evenodd" d="M18.8517 65.6117C19.3639 65.3617 20.0115 65.1817 20.6037 65.3775C20.6248 65.3843 20.6432 65.383 20.6634 65.3878C20.3717 65.7566 20.1195 66.151 19.7558 66.4786C19.3964 66.8022 18.4686 67.281 18.0961 66.6538C17.8624 66.2622 18.4765 65.7944 18.8517 65.6117ZM17.4186 66.9505C17.9045 67.6114 19.0309 67.7494 19.7786 67.2844C20.5044 66.8324 21.1247 66.0108 21.1458 65.2627C21.2784 65.1068 21.2495 64.8712 20.9252 64.775C19.9957 64.4982 18.9299 64.7613 18.2024 65.26C17.6427 65.6433 16.9732 66.3447 17.4186 66.9505Z" fill="#1F3813"/>
<path fill-rule="evenodd" clip-rule="evenodd" d="M18.8791 71.0561C19.5234 70.5174 20.3623 70.3159 21.1744 70.5496C21.6524 70.6883 21.4509 71.4354 20.9744 71.2944C20.478 71.1481 19.9976 71.2216 19.5587 71.4906C19.325 71.6339 19.0339 71.9642 19.1005 72.2247C19.1756 72.5213 20.1263 72.463 20.3654 72.4148C21.0372 72.2791 21.5283 71.7366 21.5942 71.0776C21.6072 70.9496 21.7221 70.8822 21.8393 70.9381C22.2247 71.1205 22.2538 71.6094 22.1649 71.9757C22.0385 72.4929 21.4647 72.8914 21.0143 73.1052C20.2788 73.4546 18.9098 73.5106 18.4103 72.7151C18.0426 72.1297 18.408 71.45 18.8791 71.0561Z" fill="#1F3813"/>
<path fill-rule="evenodd" clip-rule="evenodd" d="M26.3029 66.778C26.623 66.4129 27.0903 66.5028 27.5401 66.3799C27.5548 66.376 27.5649 66.3691 27.5778 66.3645C27.4868 66.8741 27.117 67.432 26.6571 67.6779C26.4124 67.8094 26.2174 67.8732 26.1309 67.6272C26.0288 67.339 26.0886 67.0216 26.3029 66.778ZM25.3868 66.5505C25.1209 67.0416 25.0501 67.6618 25.4337 68.1283C25.8881 68.6794 26.6865 68.6025 27.2494 68.2121C28.1113 67.6142 28.4388 66.6381 27.7701 65.8504C27.7673 65.8481 27.7664 65.845 27.7636 65.8419C27.7627 65.8411 27.7627 65.8396 27.7618 65.8388C27.7609 65.8373 27.759 65.8373 27.7572 65.8358C27.7066 65.7789 27.6358 65.7289 27.5438 65.6974C26.7766 65.4346 25.7078 65.9603 25.3868 66.5505Z" fill="#1F3813"/>
<path fill-rule="evenodd" clip-rule="evenodd" d="M27.2362 68.6892C27.5082 68.5986 27.797 68.5621 28.0857 68.5377C28.253 68.524 28.4211 68.5217 28.5884 68.524C28.8384 68.5278 29.1791 68.5103 29.3499 68.6952C29.4828 68.8391 29.5118 69.0437 29.3419 69.1807C29.1289 69.3535 28.8534 69.3078 28.5866 69.3093C28.4915 69.3093 28.3965 69.3131 28.3014 69.3184C28.2574 69.3207 28.2134 69.3245 28.1693 69.3276C28.1491 69.3299 28.1289 69.3314 28.1086 69.3337C28.1033 69.3344 28.098 69.3352 28.0796 69.3375C27.9343 69.3557 27.7917 69.3847 27.6526 69.4227C27.6235 69.4303 27.5945 69.4394 27.5663 69.4486C27.5619 69.4501 27.5654 69.4493 27.5593 69.4516C27.4985 69.4744 27.4404 69.5018 27.3832 69.5308C27.3665 69.5399 27.3506 69.5498 27.3339 69.5589C27.2987 69.584 27.2653 69.6122 27.2336 69.6411C27.2292 69.6457 27.2274 69.6464 27.223 69.6502C27.2212 69.6533 27.2204 69.654 27.2177 69.6578C27.1992 69.6814 27.1851 69.7065 27.1711 69.7316C27.1631 69.7484 27.1552 69.7682 27.1508 69.7811C27.1482 69.7902 27.1455 69.8001 27.1438 69.81C27.1411 69.8382 27.1402 69.8663 27.1411 69.8945V69.912C27.1429 69.9165 27.1429 69.9188 27.1447 69.9249C27.1517 69.9592 27.1631 69.9934 27.1755 70.0276C27.1781 70.0353 27.179 70.0391 27.1807 70.0444C27.2142 70.1083 27.2573 70.1677 27.3031 70.2255C27.3163 70.24 27.3295 70.2552 27.3383 70.2628C27.3674 70.2917 27.3982 70.3198 27.429 70.3465C27.4563 70.3701 27.4853 70.3921 27.5144 70.4134C27.5311 70.4241 27.5487 70.4348 27.5663 70.4454C27.6042 70.466 27.6429 70.4857 27.6825 70.504C27.6949 70.5093 27.7072 70.5139 27.7195 70.5192C27.7943 70.5443 27.8736 70.5603 27.9528 70.5732C27.9792 70.5755 28.01 70.5778 28.0259 70.5778C28.0558 70.5786 28.0848 70.5763 28.1148 70.5748C28.1421 70.571 28.1914 70.5649 28.2116 70.5611C28.2354 70.5565 28.304 70.5352 28.334 70.5276C28.3683 70.5139 28.4026 70.5002 28.4361 70.4842C28.459 70.4743 28.5338 70.4302 28.5602 70.4157C28.6694 70.3404 28.768 70.2552 28.8578 70.1631C28.8613 70.1593 28.863 70.1578 28.8666 70.1547C28.8683 70.1524 28.8683 70.1517 28.871 70.1486C28.9194 70.0938 28.9643 70.0375 29.0145 69.9835C28.9423 70.0611 29.0259 69.9675 29.0356 69.9561C29.069 69.9165 29.1007 69.8755 29.1315 69.8344C29.2627 69.6616 29.3666 69.5102 29.4925 69.3489C29.6571 69.1389 30.1333 69.1914 30.0981 69.4919C30.0224 70.1464 29.6456 70.7368 29.0215 71.1371C28.6069 71.4034 28.0523 71.4795 27.5566 71.3707C26.6754 71.1782 25.9201 70.3267 26.2203 69.5292C26.3788 69.1092 26.774 68.8436 27.2362 68.6892Z" fill="#1F3813"/>
<path fill-rule="evenodd" clip-rule="evenodd" d="M36.5217 67.2834C36.5306 67.2847 36.5387 67.2827 36.5476 67.2834C36.0841 67.7682 35.7743 68.4726 35.1402 68.7905C34.938 68.8922 33.5516 69.101 33.7554 68.612C34.0992 67.7898 35.5244 67.1386 36.5217 67.2834ZM33.0816 68.8444C33.2604 69.5185 34.5077 69.5932 35.1305 69.3872C36.0704 69.076 36.4586 68.014 36.7231 67.2719C37.0588 67.1877 37.1405 66.7614 36.7256 66.6497C35.9046 66.4274 34.8822 66.9042 34.2456 67.2988C33.7279 67.6194 32.9174 68.2275 33.0816 68.8444Z" fill="#1F3813"/>
</svg>
