<svg width="102" height="39" viewBox="0 0 102 39" fill="none" xmlns="http://www.w3.org/2000/svg">
<path fill-rule="evenodd" clip-rule="evenodd" d="M99.1888 25.6956C99.1404 23.3726 98.4175 21.0365 97.1691 19.0786C96.9977 18.8097 96.8188 18.5507 96.633 18.2997C96.4949 17.3755 96.2961 16.4592 96.0227 15.5553C95.3438 13.3075 94.2451 10.6476 91.9657 9.61252C89.7437 8.60351 87.0756 8.3765 84.6681 8.20925C83.4232 8.12236 82.1731 8.10725 80.9264 8.16357C80.7176 8.17319 80.5019 8.18109 80.2821 8.19002C80.223 8.19036 80.164 8.18899 80.1049 8.19036C79.8082 8.19826 79.5156 8.22299 79.2271 8.25973C78.5127 8.33117 77.8046 8.47163 77.1946 8.78759C75.7804 9.36216 74.5625 10.3416 73.6806 11.7013C72.3357 13.7749 72.0751 16.439 71.7921 18.8265C71.6238 20.2456 71.4878 21.6585 71.4761 23.0727C71.2611 23.6672 71.0667 24.2689 70.9029 24.8837C70.27 27.2599 69.9622 29.7769 70.0402 32.2363C70.091 33.8363 70.386 35.4051 71.5784 36.5687C72.6177 37.5828 73.9784 37.9541 75.3758 38.1073C77.7781 38.3707 80.3443 37.771 82.6659 37.2009C84.9411 36.6422 87.2212 36.0594 89.4532 35.3461C91.5564 34.6736 93.8677 33.9448 95.6738 32.6395C96.723 31.8811 97.6946 31.0105 98.2973 29.8391C98.9546 28.5612 99.2184 27.1266 99.1888 25.6956Z" fill="#D73037"/>
<path fill-rule="evenodd" clip-rule="evenodd" d="M94.2503 13.7386C94.3818 13.797 94.5065 13.8519 94.6225 13.9144C94.6916 13.9515 94.7606 13.9897 94.83 14.0278C95.1095 14.182 95.3987 14.3413 95.7068 14.4444C95.7737 14.467 95.8469 14.4375 95.885 14.3729C95.9228 14.3087 95.9125 14.2304 95.8603 14.1827C95.5199 13.8729 95.1068 13.6483 94.707 13.4309C94.6538 13.402 94.5999 13.3711 94.5442 13.3395C94.2623 13.1788 93.9425 12.9964 93.6087 12.992C93.585 12.9927 93.5582 12.9971 93.5356 13.0078C92.8957 12.2433 92.1872 11.5235 91.4272 10.8644C91.6405 10.8438 91.8589 10.8259 92.0876 10.8071C92.4592 10.7765 92.8432 10.7452 93.2248 10.6989C94.5508 10.9753 95.93 11.5506 97.324 12.4085C98.435 13.0923 99.9997 14.1631 100.944 15.6498C100.148 15.4146 99.3283 15.3905 98.354 15.3847L98.2966 15.3843C97.5823 15.3802 96.8435 15.3758 96.1491 15.1979C95.7971 15.1075 95.4701 14.9496 95.1538 14.7967C95.0144 14.7294 94.8702 14.6597 94.7249 14.5965C94.5181 14.2857 94.2897 13.9667 94.0432 13.6452C94.1122 13.6775 94.1816 13.7084 94.2503 13.7386ZM90.3282 6.56324C89.5799 7.14261 89.1499 7.99536 89.05 9.09847C89.0496 9.10156 89.0496 9.10465 89.0496 9.10809C88.3473 8.61182 87.6319 8.16639 86.9221 7.78346C86.9657 7.75049 87.0017 7.7055 87.0241 7.65295C87.069 7.54821 87.0491 7.43384 86.9708 7.3473C85.7715 6.0261 85.5627 4.78802 86.332 3.56299C86.6748 3.01693 87.0793 2.49938 87.4705 1.99899C87.7281 1.66895 87.9943 1.32895 88.2422 0.981055C88.5067 1.44194 88.8099 1.88291 89.1039 2.31015C89.3962 2.73497 89.6984 3.17423 89.9597 3.62996C90.4811 4.53938 90.592 5.41788 90.3282 6.56324ZM92.0045 10.2514C91.6673 10.2861 91.3482 10.319 91.0347 10.3616C90.9818 10.3688 90.9365 10.3912 90.9018 10.4262C90.3557 9.98625 89.7969 9.5834 89.2392 9.22794C89.2653 9.21661 89.2876 9.19703 89.3017 9.17059C89.3903 9.00643 89.4734 8.83883 89.5565 8.67158C89.8766 8.0273 90.1792 7.41873 90.75 6.98154C91.3575 6.51653 92.1409 6.24006 93.0785 6.16039C94.0912 6.07419 95.1253 6.12707 96.1251 6.17825C96.6234 6.204 97.1372 6.23045 97.6454 6.23938L97.6166 6.30291C97.0685 7.5118 96.4472 8.88211 95.319 9.48792C94.3454 10.0103 93.1554 10.1329 92.0045 10.2514ZM69.1497 30.8811C69.1188 30.186 69.0576 29.4782 68.9982 28.7937C68.9484 28.2164 68.8966 27.6192 68.865 27.0436C68.7712 25.3388 68.6974 23.3263 68.8632 21.3258C69.2008 17.2502 70.3486 13.8774 72.2749 11.3009C74.3218 8.5634 77.175 6.92556 80.1035 6.80742C83.5705 6.66936 87.0718 8.16467 90.8114 11.384C90.8588 11.5733 90.9316 11.757 91.0275 11.9304C91.0491 11.9696 91.0711 12.0104 91.0934 12.0523C91.2318 12.3127 91.3891 12.6077 91.6481 12.7564C91.7085 12.7911 91.7806 12.7873 91.8363 12.7471C91.8936 12.7056 91.9211 12.6334 91.9063 12.5644C91.8596 12.3419 91.7222 12.1403 91.589 11.9452C91.5752 11.9253 91.5618 11.9057 91.5488 11.8858C93.3601 13.6558 94.5714 15.3311 95.342 17.1273C96.9847 20.9549 96.4287 25.5569 93.9896 28.3177C91.5409 31.0896 87.8905 32.1398 84.3604 33.1554L83.5471 33.3899C81.6788 33.9301 79.7467 34.4886 77.8128 34.8791C75.7858 35.2877 73.8032 35.3794 71.5733 35.1675C71.565 35.1669 71.5565 35.1665 71.5482 35.1665C71.5358 35.1665 71.5231 35.1672 71.5101 35.1689C70.8665 34.8657 70.3695 34.3745 69.9907 33.6678C69.8537 33.4119 69.7393 33.1296 69.6288 32.8566C69.5508 32.6646 69.4704 32.4664 69.3822 32.2769C69.3715 32.1384 69.3578 32.0128 69.3396 31.8922C69.332 31.8421 69.3252 31.7905 69.318 31.7387C69.2991 31.601 69.2795 31.4581 69.2489 31.3163C69.2475 31.3025 69.2438 31.2922 69.241 31.2854C69.2173 31.1875 69.1929 31.1102 69.1634 31.0408V31.0298C69.1637 31.0103 69.1637 30.9907 69.1648 30.9718C69.1662 30.9399 69.1613 30.91 69.1497 30.8811ZM101.943 16.1385C101.286 14.6257 99.7905 13.2334 97.3724 11.8823C96.4633 11.3748 95.4001 10.8229 94.3124 10.5096C94.8736 10.3743 95.3358 10.1882 95.7195 9.94469C96.9713 9.14827 97.6499 7.68009 98.2489 6.38499L98.3869 6.08758C98.4364 5.98146 98.4295 5.85714 98.3691 5.76269C98.3145 5.67855 98.2207 5.63253 98.1194 5.63184C97.6465 5.63631 97.1052 5.61295 96.5317 5.58823C94.696 5.50855 92.4266 5.40998 90.8801 6.21259C91.3087 4.6613 90.389 3.25562 89.4985 1.89459C89.1558 1.37017 88.8006 0.828226 88.5273 0.28457C88.4826 0.195277 88.3988 0.141014 88.2982 0.135519C88.1893 0.128307 88.0805 0.1836 88.0217 0.273923C87.7356 0.713519 87.3819 1.14728 87.0402 1.5673C86.4093 2.3414 85.7568 3.14229 85.4343 4.07025C85.0452 5.19087 85.3206 6.27613 86.3022 7.46372C84.5493 6.60617 82.8259 6.14493 81.1743 6.09136C79.9861 4.76021 79.6955 3.1392 80.2653 1.00441C80.5761 1.57863 81.0741 2.05875 81.855 2.54265C81.967 2.61202 82.0779 2.68037 82.1882 2.74802C83.1329 3.3274 84.0255 3.87449 84.7375 4.77051C84.7742 4.81653 84.8353 4.82992 84.8889 4.80417C84.947 4.776 84.9789 4.71178 84.9648 4.65202C84.6935 3.49396 83.6763 2.90978 82.6927 2.34518C81.7503 1.80392 80.776 1.24447 80.4724 0.180853C80.4418 0.073701 80.3525 0.00295354 80.2447 0.000206061C80.1306 -0.00116768 80.0307 0.0678626 79.9936 0.176044C79.1189 2.72089 79.2796 4.65821 80.4857 6.09204C80.3436 6.09685 80.2175 6.10338 80.0966 6.11265C77.0243 6.34653 74.2256 7.86897 72.2162 10.3994C70.0955 13.0699 68.7661 16.5486 68.3718 20.4589C68.1808 22.3537 68.1571 24.3569 68.2973 26.7634C68.3141 27.0546 68.3299 27.3493 68.3457 27.6456C68.4151 28.9466 68.4868 30.2911 68.6754 31.5869C68.6328 31.6278 68.6098 31.6817 68.6118 31.737C68.6486 32.6502 69.2616 33.7498 69.8231 34.4745C70.2926 35.0807 70.7745 35.4608 71.2951 35.6356C71.3343 35.7129 71.4019 35.7648 71.4874 35.783C71.6773 35.8269 71.871 35.8637 72.062 35.8918C72.6809 35.9962 73.309 36.0402 73.9323 36.0402C75.5808 36.0402 77.1956 35.7339 78.5162 35.4344C80.7694 34.923 82.9963 34.2804 85.0843 33.666C88.4524 32.6749 92.644 31.4409 94.968 28.2147C97.1983 25.1183 97.6341 20.6152 96.0519 17.0088C95.8562 16.5627 95.6281 16.1076 95.3729 15.6543C95.9472 15.8669 96.6687 15.9891 97.5215 16.018C97.7887 16.0273 98.0627 16.0283 98.3279 16.0297C99.4045 16.0345 100.518 16.0393 101.492 16.574C101.619 16.6437 101.761 16.6296 101.862 16.5376C101.971 16.4383 102.004 16.278 101.943 16.1385Z" fill="#1F3813"/>
<path fill-rule="evenodd" clip-rule="evenodd" d="M90.6088 9.36284C91.2881 8.8367 92.5736 8.67529 93.3463 9.06612C93.4078 9.09737 93.3762 9.19181 93.312 9.19181C92.8645 9.1925 92.4297 9.14202 91.9825 9.19971C91.5364 9.25707 91.16 9.4566 90.7445 9.60394C90.6133 9.6503 90.4962 9.45008 90.6088 9.36284Z" fill="#1F3813"/>
<path fill-rule="evenodd" clip-rule="evenodd" d="M92.0827 7.63345C92.2197 7.59773 92.298 7.79246 92.1747 7.86183C91.5208 8.23034 90.9916 8.62872 90.5444 9.23557C90.3916 9.44266 90.0719 9.26545 90.1952 9.03054C90.5544 8.34607 91.3501 7.82371 92.0827 7.63345Z" fill="#1F3813"/>
<path fill-rule="evenodd" clip-rule="evenodd" d="M88.8803 5.56645C88.9154 5.69181 88.9909 5.74023 89.0005 5.89684C89.0174 6.18051 88.9772 6.46694 88.9208 6.74409C88.8474 7.10298 88.6842 7.99625 88.2491 8.09688C88.19 8.11061 88.1361 8.06803 88.1344 8.00793C88.1289 7.84171 88.223 7.71566 88.3003 7.57177C88.4311 7.3269 88.5118 7.05455 88.5863 6.78839C88.6516 6.55383 88.7 6.31067 88.7412 6.07061C88.757 5.98029 88.8408 5.6767 88.8281 5.58019C88.8237 5.54653 88.8707 5.53177 88.8803 5.56645Z" fill="#1F3813"/>
<path fill-rule="evenodd" clip-rule="evenodd" d="M87.5834 5.36506C87.7338 5.70712 87.8042 6.0849 87.8132 6.45821C87.8214 6.79478 87.8606 7.35217 87.5583 7.5651C87.4938 7.61078 87.4048 7.5706 87.3674 7.51118C87.2053 7.25464 87.365 6.85282 87.3804 6.56399C87.401 6.18244 87.367 5.80809 87.3409 5.42825C87.3324 5.30187 87.5312 5.24658 87.5834 5.36506Z" fill="#1F3813"/>
<path fill-rule="evenodd" clip-rule="evenodd" d="M82.9989 4.77947C83.3018 4.63351 83.7417 4.95943 83.9622 5.14248C84.3201 5.43955 84.9077 5.97119 84.8699 6.48222C84.8613 6.59487 84.7435 6.67832 84.6381 6.61444C84.2943 6.40666 84.09 5.95402 83.8142 5.66038C83.5793 5.41002 83.1102 5.15794 82.9814 4.84198C82.9724 4.82 82.9742 4.79149 82.9989 4.77947Z" fill="#1F3813"/>
<path fill-rule="evenodd" clip-rule="evenodd" d="M82.4732 5.18548C82.5896 5.19613 82.7043 5.22944 82.8152 5.27477C82.7452 5.19819 82.6734 5.12263 82.6013 5.04605C82.5584 5.00003 82.602 4.92069 82.6648 4.93821C83.0615 5.04982 83.5966 5.4173 83.5876 5.88197C83.5866 5.92249 83.5622 5.96061 83.5286 5.98362C83.5674 6.08356 83.5955 6.18728 83.6003 6.29649C83.6055 6.4112 83.4475 6.44211 83.3932 6.35041C83.1422 5.92593 82.8379 5.6474 82.4155 5.39669C82.3241 5.34209 82.3568 5.17483 82.4732 5.18548Z" fill="#1F3813"/>
<path fill-rule="evenodd" clip-rule="evenodd" d="M81.1324 4.99748C81.7722 4.81512 82.5072 5.44738 82.5638 6.06969C82.5759 6.19882 82.3997 6.25411 82.3186 6.16928C82.1404 5.98348 81.9934 5.77433 81.8148 5.58785C81.6191 5.38385 81.3629 5.23995 81.1173 5.10601C81.0706 5.0806 81.0843 5.01122 81.1324 4.99748Z" fill="#1F3813"/>
<path fill-rule="evenodd" clip-rule="evenodd" d="M93.9058 12.2069C94.3399 12.4044 94.751 12.6582 95.1734 12.8801C95.5975 13.1029 96.0557 13.2863 96.4407 13.5748C96.4747 13.6002 96.4695 13.671 96.416 13.6655C96.0358 13.6263 95.682 13.4735 95.3334 13.3241C94.7891 13.0916 94.2118 12.8553 93.7282 12.5095C93.5428 12.3769 93.7004 12.1135 93.9058 12.2069Z" fill="#1F3813"/>
<path fill-rule="evenodd" clip-rule="evenodd" d="M90.6715 14.0831C90.7027 14.0432 90.7395 14.0333 90.7858 14.0532C90.9819 14.137 90.9995 14.4588 91.0647 14.6398C91.1489 14.8737 91.301 15.0303 91.4981 15.147C91.5874 14.9568 91.6362 14.7593 91.5823 14.5419C91.5198 14.2902 91.3274 14.0831 91.2275 13.8464C91.1664 13.7008 91.3237 13.5799 91.4463 13.683C91.6946 13.8914 91.8859 14.182 91.9714 14.4962C92.0682 14.8527 91.9322 15.215 91.7622 15.5245C91.7056 15.6282 91.5799 15.6454 91.4816 15.5976C91.187 15.4534 90.9541 15.2494 90.8109 14.9513C90.7134 14.7487 90.5162 14.2812 90.6715 14.0831Z" fill="#1F3813"/>
<path fill-rule="evenodd" clip-rule="evenodd" d="M88.2388 12.271C88.4136 12.1965 88.6262 12.1515 88.8157 12.1631C88.9816 12.1731 88.983 12.4197 88.8151 12.4221C88.6924 12.4238 88.5681 12.4138 88.4531 12.4417C88.3593 12.4643 88.2923 12.4921 88.2089 12.5505C88.2264 12.5382 88.1852 12.5701 88.178 12.5766C88.1636 12.5893 88.1502 12.6031 88.1371 12.6172C88.1326 12.6216 88.1285 12.6268 88.1244 12.6316C88.1217 12.6357 88.1165 12.6415 88.1151 12.6433C88.1028 12.6608 88.0914 12.6786 88.0811 12.6972C88.0736 12.7102 88.0674 12.7236 88.0609 12.737C88.0605 12.7401 88.0488 12.7693 88.0468 12.7755C88.0413 12.7923 88.0368 12.8095 88.0327 12.827C88.0313 12.8346 88.0262 12.8655 88.0245 12.8727C88.008 13.0183 88.0392 13.1529 88.0928 13.2659C88.1079 13.2975 88.1251 13.3281 88.144 13.3579C88.1533 13.3724 88.1629 13.3865 88.1732 13.4002C88.1567 13.3775 88.191 13.4218 88.1979 13.4294C88.2192 13.4538 88.2425 13.4764 88.2673 13.4974C88.268 13.4981 88.2697 13.4998 88.2714 13.5012C88.2765 13.5046 88.2817 13.5084 88.2868 13.5121C88.3016 13.5221 88.3167 13.531 88.3322 13.5396C88.3387 13.5434 88.3456 13.5465 88.3521 13.5499C88.3548 13.5513 88.3548 13.5513 88.3562 13.552C88.3573 13.552 88.3566 13.5516 88.3583 13.5527C88.3761 13.5595 88.395 13.5647 88.4136 13.5685C88.4222 13.5705 88.4253 13.5712 88.427 13.5719C88.4273 13.5716 88.4301 13.5712 88.4417 13.5719C88.4575 13.5726 88.474 13.5719 88.4898 13.5705C88.4926 13.5695 88.5224 13.565 88.53 13.563C88.5671 13.553 88.541 13.5619 88.5709 13.5475C88.621 13.5235 88.6293 13.5152 88.6677 13.4799C88.7563 13.3985 88.8161 13.293 88.869 13.1831C88.9507 13.0135 89.0187 12.8325 89.0767 12.6539C89.085 12.6288 89.1265 12.6316 89.1248 12.6601C89.1056 12.9469 89.0575 13.225 88.9098 13.4757C88.8254 13.619 88.6955 13.7522 88.5262 13.7852C88.201 13.8484 87.9523 13.5362 87.851 13.2669C87.7638 13.0348 87.7696 12.7545 87.9074 12.5426C87.9867 12.4204 88.1052 12.328 88.2388 12.271Z" fill="#1F3813"/>
<path fill-rule="evenodd" clip-rule="evenodd" d="M85.5265 12.5052C85.6014 12.4791 85.6395 12.578 85.5959 12.6282C85.3816 12.8717 85.111 13.0276 84.9269 13.3058C84.7332 13.5984 84.8259 13.9006 84.9859 14.1695C85.5069 13.6561 85.7456 13.0431 86.0846 12.3919C86.1131 12.3376 86.1941 12.3655 86.1952 12.4221C86.2099 13.2364 85.6707 14.0435 85.0742 14.5549C84.9842 14.6318 84.8736 14.6084 84.807 14.516C84.275 13.777 84.6744 12.803 85.5265 12.5052Z" fill="#1F3813"/>
<path fill-rule="evenodd" clip-rule="evenodd" d="M85.6168 10.0655C85.6992 10.0225 85.8222 9.99473 85.9369 9.95661C85.9252 10.0208 85.9214 10.0881 85.9098 10.1486C85.8744 10.3347 85.8002 10.4642 85.6841 10.5844C85.5523 10.4048 85.4149 10.1702 85.6168 10.0655ZM85.5358 10.9639C85.5959 11.0429 85.7185 11.0247 85.7837 10.9677C85.9747 10.8001 86.2192 10.548 86.2092 10.2681C86.2044 10.1441 86.1986 9.97378 86.1546 9.84327C86.1873 9.81408 86.2137 9.78111 86.2261 9.73887C86.2402 9.69182 86.2161 9.64717 86.178 9.62107C86.0334 9.52182 85.7964 9.65061 85.6494 9.70453C85.51 9.75536 85.3627 9.81168 85.2679 9.93188C85.01 10.2592 85.3342 10.7012 85.5358 10.9639Z" fill="#1F3813"/>
<path fill-rule="evenodd" clip-rule="evenodd" d="M83.3162 9.4021C83.4962 9.27056 83.7664 9.24 83.9732 9.15963C84.1549 9.08889 84.273 9.38974 84.0999 9.47456C83.9354 9.55527 83.7627 9.55974 83.5882 9.60576C83.4062 9.65349 83.3938 9.83792 83.4038 10.0059C83.5648 10.0103 83.6871 9.97357 83.8159 9.83792C83.9316 9.71565 84.0292 9.61194 84.1899 9.55081C84.217 9.5405 84.2397 9.57622 84.2259 9.59854C84.1219 9.76614 84.0436 9.95194 83.9206 10.1068C83.7709 10.2961 83.4852 10.3012 83.2698 10.2827C83.1847 10.2755 83.1362 10.2219 83.1266 10.1388C83.0971 9.88394 83.0851 9.57141 83.3162 9.4021Z" fill="#1F3813"/>
<path fill-rule="evenodd" clip-rule="evenodd" d="M83.4604 11.4798C83.5984 11.3988 83.72 11.6151 83.582 11.6965C83.0596 12.0035 82.7708 12.336 82.7656 12.8917C83.3288 12.6111 83.5933 12.0777 83.7609 11.465C83.798 11.3301 83.9855 11.3651 83.9944 11.4959C84.0525 12.3253 83.4422 13.1176 82.6482 13.3247C82.5338 13.3543 82.4284 13.266 82.4249 13.152C82.3988 12.349 82.7951 11.8713 83.4604 11.4798Z" fill="#1F3813"/>
<path fill-rule="evenodd" clip-rule="evenodd" d="M89.6856 10.479C89.916 10.6954 90.0129 10.9667 90.0596 11.2747C90.1032 11.5653 90.1107 11.998 89.9243 12.2425C89.8927 12.2841 89.8126 12.2903 89.8006 12.2254C89.7529 11.9565 89.8357 11.6594 89.8333 11.384C89.8302 11.0835 89.7381 10.7829 89.6536 10.4969C89.6481 10.478 89.6722 10.4666 89.6856 10.479Z" fill="#1F3813"/>
<path fill-rule="evenodd" clip-rule="evenodd" d="M88.5349 9.98549C88.5215 10.1837 88.4903 10.3849 88.4226 10.5724C88.3546 10.762 88.2849 11.0285 88.0902 11.1164C88.0273 11.1446 87.9689 11.1078 87.9617 11.0409C87.9411 10.8513 88.0853 10.6724 88.1551 10.5006C88.231 10.3142 88.3113 10.1277 88.4092 9.95115C88.4408 9.89414 88.5394 9.91783 88.5349 9.98549Z" fill="#1F3813"/>
<path fill-rule="evenodd" clip-rule="evenodd" d="M87.3577 9.67863C87.4848 9.53164 87.6057 9.38053 87.7362 9.23663C87.7767 9.19164 87.8588 9.23972 87.8392 9.29708C87.773 9.49283 87.6957 9.67898 87.5683 9.84382C87.4556 9.98944 87.3028 10.1783 87.1057 10.1711C87.0545 10.1691 87.0071 10.1189 87.025 10.0657C87.0806 9.90083 87.2451 9.80845 87.3577 9.67863Z" fill="#1F3813"/>
<path fill-rule="evenodd" clip-rule="evenodd" d="M86.2757 8.65602C86.455 8.62305 86.6298 8.6234 86.8112 8.63164C86.8991 8.63576 86.9262 8.77588 86.8314 8.79133C86.68 8.81572 86.5278 8.83667 86.376 8.85968C86.2256 8.88269 86.0614 8.96614 85.9093 8.94931C85.8643 8.94416 85.8234 8.89643 85.8537 8.85144C85.9443 8.71544 86.1253 8.68384 86.2757 8.65602Z" fill="#1F3813"/>
<path fill-rule="evenodd" clip-rule="evenodd" d="M84.691 8.32533C85.0231 8.23741 85.3731 8.17834 85.7131 8.13095C85.7718 8.1227 85.7917 8.19791 85.7361 8.21955C85.4201 8.34216 85.0492 8.47266 84.7048 8.43145C84.6467 8.42458 84.6278 8.34216 84.691 8.32533Z" fill="#1F3813"/>
<path fill-rule="evenodd" clip-rule="evenodd" d="M93.7622 16.9499C93.7364 16.9146 93.78 16.8606 93.8199 16.8754C94.7653 17.2178 94.8763 18.3347 94.5088 19.1393C94.4703 19.2238 94.3474 19.2458 94.2735 19.2008C93.5884 18.7825 92.8576 17.8741 93.7333 17.2254C93.8305 17.1536 93.9095 17.3023 93.8487 17.3799C93.6444 17.6406 93.4541 17.9019 93.6334 18.233C93.7677 18.4803 94.028 18.654 94.2752 18.8021C94.3793 18.4988 94.4071 18.1822 94.3268 17.8642C94.2392 17.5169 93.9665 17.2339 93.7622 16.9499Z" fill="#1F3813"/>
<path fill-rule="evenodd" clip-rule="evenodd" d="M90.2174 16.7165C90.2995 16.6306 90.4403 16.553 90.5443 16.4596C90.5557 16.5616 90.5646 16.6636 90.5629 16.7663C90.5577 17.0362 90.4739 17.2653 90.339 17.4837C90.1611 17.255 89.9849 16.9593 90.2174 16.7165ZM89.8928 16.7546C89.7356 17.1372 90.0172 17.5119 90.2569 17.7877C90.3149 17.8546 90.4142 17.8278 90.4588 17.7633C90.85 17.1994 90.8699 16.6008 90.5797 15.986C90.5605 15.9448 90.4908 15.963 90.4939 16.0083C90.4976 16.0647 90.5035 16.121 90.5103 16.177C90.2699 16.2309 89.9687 16.5705 89.8928 16.7546Z" fill="#1F3813"/>
<path fill-rule="evenodd" clip-rule="evenodd" d="M87.3123 15.8393C87.4548 15.5869 87.7079 15.5106 87.8992 15.3441C87.8522 15.5044 87.8611 15.6803 87.8395 15.8458C87.7993 16.1515 87.6808 16.4159 87.4974 16.6508C87.3126 16.4187 87.1536 16.1206 87.3123 15.8393ZM86.9627 15.8472C86.8363 16.3043 87.0578 16.724 87.3686 17.0513C87.4325 17.1186 87.5579 17.1275 87.6224 17.0551C87.9487 16.6886 88.4941 15.703 87.9847 15.2644C87.9834 15.2634 87.9813 15.2627 87.9799 15.2616C87.9847 15.2561 87.9899 15.252 87.9944 15.2462C88.0503 15.1754 88.0177 15.0844 87.925 15.0745C87.5462 15.035 87.0606 15.4924 86.9627 15.8472Z" fill="#1F3813"/>
<path fill-rule="evenodd" clip-rule="evenodd" d="M80.2949 10.6689C80.5126 10.3501 80.831 10.0589 81.2345 10.0448C81.4241 10.038 81.6164 10.0689 81.7871 10.1558C81.8857 10.2056 81.9777 10.2718 82.079 10.3048C81.8589 10.5459 81.6226 10.7887 81.2939 10.8653C80.9323 10.9491 80.5999 10.8547 80.2949 10.6689ZM80.0373 10.6448C80.0033 10.7005 80.0274 10.7664 80.0782 10.8007C80.8124 11.3021 81.8438 11.1782 82.2274 10.3237C82.2865 10.3158 82.3394 10.2605 82.3188 10.1973C82.19 9.80649 81.4804 9.73746 81.1363 9.8089C80.65 9.90987 80.2915 10.2289 80.0373 10.6448Z" fill="#1F3813"/>
<path fill-rule="evenodd" clip-rule="evenodd" d="M78.6025 9.00684C78.7265 8.81658 78.8772 8.71698 79.1434 8.72591C79.2749 8.73038 79.4542 8.77159 79.6094 8.76266C79.5205 8.86363 79.4312 8.96391 79.3189 9.03122C79.0881 9.17032 78.835 9.10747 78.6025 9.00684ZM78.2553 8.99791C78.2251 9.0666 78.2271 9.171 78.3095 9.20706C78.6324 9.34753 79.0445 9.4928 79.3783 9.29636C79.6493 9.13735 79.8183 8.86569 79.9415 8.58579C79.9676 8.52706 79.9072 8.47933 79.8557 8.51573C79.7499 8.38213 79.5658 8.40755 79.4051 8.39381C79.2433 8.38042 79.0788 8.36153 78.9174 8.39038C78.5805 8.45013 78.3872 8.69844 78.2553 8.99791Z" fill="#1F3813"/>
<path fill-rule="evenodd" clip-rule="evenodd" d="M74.5787 10.8588C74.5626 10.8592 74.5464 10.8588 74.5299 10.8582C74.5258 10.8578 74.5238 10.8578 74.5214 10.8578C74.5207 10.8578 74.5203 10.8575 74.5193 10.8575C74.5104 10.8554 74.5014 10.8523 74.4929 10.8496C74.4925 10.8492 74.4922 10.8492 74.4915 10.8489C74.4922 10.8468 74.4929 10.8448 74.4932 10.843C74.4953 10.8386 74.4977 10.8345 74.5001 10.8303C74.5038 10.8242 74.5148 10.8101 74.52 10.8036C74.5293 10.7932 74.5382 10.7826 74.5488 10.7733C74.5629 10.7603 74.5773 10.7483 74.5924 10.7366C74.5979 10.7335 74.6326 10.7098 74.6388 10.706C74.6903 10.6755 74.7432 10.6483 74.7982 10.625C74.8895 10.5862 74.9843 10.5607 75.0794 10.537C75.0454 10.5683 75.0169 10.5968 75.0035 10.6075C74.9091 10.6803 74.8565 10.7489 74.7545 10.8022C74.7363 10.8118 74.7185 10.8207 74.6999 10.829C74.6938 10.8303 74.6639 10.8417 74.6577 10.8434C74.6392 10.8485 74.6203 10.8533 74.601 10.8568C74.5983 10.8571 74.5997 10.8571 74.5979 10.8575C74.5914 10.8582 74.5852 10.8585 74.5787 10.8588ZM74.2576 11.0817C74.4224 11.2253 74.6474 11.203 74.8325 11.1092C74.9506 11.0498 75.0581 10.9622 75.145 10.8633C75.2038 10.797 75.2439 10.7239 75.2793 10.6432C75.3037 10.5879 75.3291 10.5226 75.3085 10.4653C75.4129 10.3801 75.3741 10.163 75.2154 10.183C75.0125 10.2087 74.8092 10.2685 74.6223 10.3512C74.5056 10.4031 74.3843 10.4704 74.2968 10.5652C74.17 10.7022 74.0917 10.9371 74.2576 11.0817Z" fill="#1F3813"/>
<path fill-rule="evenodd" clip-rule="evenodd" d="M76.4138 11.9096C76.566 11.7994 76.7572 11.5998 76.9554 11.6369C77.0083 11.6469 77.0275 11.7029 77.0203 11.7492C76.9977 11.8945 76.8541 11.9577 76.7425 12.0357C76.6127 12.1256 76.4842 12.2166 76.3736 12.33C76.1731 12.536 76.4049 12.7751 76.5934 12.9389C76.7136 12.8022 76.7837 12.6538 76.8036 12.4588C76.8198 12.3032 76.8208 12.1638 76.8816 12.0181C76.9077 11.9556 76.9949 11.9464 77.0172 12.0188C77.1549 12.4663 77.0389 12.9152 76.7047 13.2391C76.6436 13.2981 76.5622 13.2854 76.5014 13.236C76.2112 13.0004 75.8585 12.6748 76.0494 12.2719C76.1215 12.1198 76.2819 12.0051 76.4138 11.9096Z" fill="#1F3813"/>
<path fill-rule="evenodd" clip-rule="evenodd" d="M93.8517 21.4059C93.8339 21.3674 93.8768 21.3076 93.9187 21.3403C94.5829 21.8568 94.586 22.5653 94.201 23.2645C94.1498 23.3569 94.0406 23.3696 93.9531 23.3291C93.6711 23.1972 93.4121 23.0183 93.3802 22.6879C93.3596 22.4777 93.4997 22.0859 93.621 21.9224C93.6835 21.8379 93.8442 21.8286 93.8675 21.9567C93.9026 22.1473 93.8026 22.3324 93.7494 22.5134C93.6859 22.7288 93.8095 22.8414 93.9706 22.9317C94.0808 22.7161 94.1557 22.4932 94.1426 22.2421C94.1275 21.9454 93.9733 21.6696 93.8517 21.4059Z" fill="#1F3813"/>
<path fill-rule="evenodd" clip-rule="evenodd" d="M90.6912 21.2571C90.8104 21.1269 91.0179 21.2983 90.9313 21.4453C90.8619 21.5635 90.7599 21.7098 90.7191 21.8135C90.6985 21.865 90.6833 21.9179 90.6727 21.9721C90.6645 22.0158 90.6717 21.9666 90.6686 22.0089C90.6672 22.0322 90.6676 22.0552 90.6693 22.0786C90.6703 22.0865 90.672 22.0944 90.6737 22.102C90.6758 22.1119 90.6785 22.1212 90.6816 22.1305C90.682 22.1318 90.6816 22.1311 90.682 22.1322C90.6875 22.1442 90.694 22.1562 90.7012 22.1676C90.706 22.173 90.7108 22.1782 90.716 22.1834C90.7184 22.1858 90.7208 22.1878 90.7232 22.1902C90.729 22.194 90.7414 22.2005 90.7496 22.2046C90.7603 22.2081 90.7709 22.2115 90.7819 22.2139C90.7888 22.2146 90.7957 22.2149 90.8029 22.2149C90.8121 22.2149 90.8211 22.2139 90.83 22.2129C90.8324 22.2115 90.8626 22.2064 90.8705 22.204C90.8767 22.2022 90.8822 22.2005 90.888 22.1985C90.8891 22.1978 90.8884 22.1981 90.8898 22.1974C90.908 22.1892 90.9258 22.1792 90.9426 22.1686C90.9499 22.1641 90.9523 22.1627 90.954 22.1621C90.9553 22.1607 90.9574 22.1583 90.9646 22.1524C90.9825 22.138 90.9986 22.1219 91.0141 22.1054C91.0196 22.0996 91.0247 22.0937 91.0299 22.0875C91.0316 22.0858 91.0323 22.0848 91.0333 22.0838C91.0347 22.082 91.0354 22.0807 91.0374 22.0783C91.0529 22.0573 91.0666 22.035 91.0797 22.0123C91.1291 21.9268 91.1587 21.8272 91.1731 21.717C91.1827 21.6442 91.1896 21.5707 91.1937 21.4975C91.1992 21.4075 91.2181 21.3227 91.2322 21.2341C91.238 21.1977 91.2909 21.1956 91.3067 21.2248C91.3506 21.3045 91.3905 21.3801 91.4052 21.4707C91.4197 21.5593 91.4265 21.6459 91.4197 21.7355C91.409 21.8801 91.375 22.0182 91.3122 22.149C91.2191 22.3434 91.0371 22.4928 90.8193 22.5117C90.6136 22.5299 90.4443 22.3853 90.3825 22.1985C90.296 21.9375 90.4333 21.6373 90.5673 21.4196C90.6033 21.3608 90.6449 21.3079 90.6912 21.2571Z" fill="#1F3813"/>
<path fill-rule="evenodd" clip-rule="evenodd" d="M87.1542 19.7296C87.2068 19.7162 87.2645 19.7396 87.2906 19.7877C87.4108 20.0081 87.1869 20.2832 87.1065 20.4938C87.0224 20.7139 87.033 20.8966 87.1285 21.0783C87.2858 20.9327 87.3895 20.7634 87.384 20.526C87.3792 20.3018 87.3084 20.1033 87.3555 19.878C87.3706 19.8048 87.4747 19.7787 87.5238 19.834C87.7202 20.0576 87.7965 20.3571 87.7896 20.6517C87.7807 21.0323 87.5145 21.3228 87.2295 21.5412C87.1467 21.6044 87.0042 21.637 86.9283 21.5368C86.7146 21.2545 86.5982 20.9749 86.6566 20.6188C86.6824 20.4608 86.7607 20.3073 86.828 20.1641C86.9066 19.9968 86.9581 19.7787 87.1542 19.7296Z" fill="#1F3813"/>
<path fill-rule="evenodd" clip-rule="evenodd" d="M83.0832 17.8456C83.2642 17.6093 83.6337 17.5962 83.7773 17.3462C83.7818 17.3387 83.7821 17.3304 83.7845 17.3225C83.7045 17.759 83.6691 18.1375 83.3483 18.46C83.1605 18.2955 82.9266 18.0499 83.0832 17.8456ZM82.7157 17.791C82.5591 18.2086 82.9376 18.5781 83.223 18.8247C83.303 18.8937 83.3968 18.8948 83.4782 18.8285C83.97 18.4304 84.1558 17.7405 83.8676 17.169C83.8559 17.1463 83.8182 17.1508 83.813 17.1759C83.8051 17.2136 83.7979 17.2507 83.791 17.2875C83.7897 17.2391 83.7594 17.1937 83.7089 17.1793C83.3806 17.0873 82.8325 17.4791 82.7157 17.791Z" fill="#1F3813"/>
<path fill-rule="evenodd" clip-rule="evenodd" d="M80.8724 16.3476C80.9445 16.3562 81.0105 16.4513 80.938 16.5097C80.7165 16.6883 80.4417 16.7391 80.2226 16.9314C79.9706 17.1529 79.9386 17.4943 79.9661 17.8113C80.529 17.5345 80.779 17.0303 80.984 16.4334C81.0136 16.3476 81.1537 16.3555 81.1485 16.4551C81.1056 17.2755 80.633 17.8906 79.8754 18.1884C79.8006 18.2176 79.6975 18.1534 79.6845 18.0761C79.6137 17.6616 79.6206 17.2707 79.8466 16.9039C80.0399 16.5897 80.5043 16.3036 80.8724 16.3476Z" fill="#1F3813"/>
<path fill-rule="evenodd" clip-rule="evenodd" d="M77.581 14.6241C77.7651 14.442 78.2318 14.2638 78.4784 14.3277C78.534 14.3421 78.5759 14.4197 78.5371 14.4705C78.4004 14.6502 78.1648 14.6673 77.966 14.7528C77.672 14.8796 77.7026 15.1237 77.7864 15.3707C78.0223 15.3075 78.203 15.199 78.3493 14.9747C78.4746 14.7827 78.5526 14.5433 78.6477 14.3352C78.668 14.2913 78.7415 14.3132 78.7384 14.36C78.7164 14.6687 78.6958 14.9747 78.5292 15.2457C78.3537 15.5311 78.0337 15.6612 77.7222 15.7337C77.6257 15.7564 77.547 15.7011 77.5147 15.6121C77.3952 15.2804 77.3025 14.9002 77.581 14.6241Z" fill="#1F3813"/>
<path fill-rule="evenodd" clip-rule="evenodd" d="M77.649 19.1569C77.6778 19.1614 77.7063 19.1923 77.7122 19.2205C77.7664 19.4983 77.3468 19.8356 77.2121 20.0585C76.9841 20.4359 76.9374 20.7975 77.2784 21.0304C77.4986 20.6787 77.5641 20.2971 77.6232 19.8782C77.64 19.7573 77.8217 19.7734 77.8492 19.8792C78.0099 20.3981 77.8135 20.9507 77.4955 21.3693C77.4275 21.459 77.3426 21.4799 77.2399 21.436C76.7272 21.2165 76.5407 20.767 76.7193 20.2446C76.8237 19.94 77.2506 19.0944 77.649 19.1569Z" fill="#1F3813"/>
<path fill-rule="evenodd" clip-rule="evenodd" d="M75.6541 17.3955C75.7259 17.4007 75.7589 17.4666 75.7307 17.5298C75.6517 17.7073 75.4577 17.8062 75.3406 17.9656C75.2197 18.1304 75.1627 18.3248 75.1699 18.5227C75.4274 18.4402 75.64 18.2328 75.798 18.0219C75.9756 17.785 76.0017 17.5294 76.105 17.2695C76.1236 17.2238 76.1799 17.1994 76.2191 17.2399C76.4547 17.4865 76.2033 17.9477 76.0594 18.1754C75.8293 18.5398 75.4662 18.841 75.0287 18.8846C74.9597 18.8915 74.8821 18.8283 74.8694 18.7613C74.811 18.4481 74.8676 18.172 75.0194 17.8931C75.1383 17.6757 75.3876 17.3759 75.6541 17.3955Z" fill="#1F3813"/>
<path fill-rule="evenodd" clip-rule="evenodd" d="M74.197 14.6416C74.2695 14.6646 74.3238 14.7275 74.3231 14.8061C74.3217 14.9002 74.2527 14.9758 74.1527 14.9755C73.9439 14.9755 73.8883 14.9895 73.7681 15.1901C73.585 15.4961 73.4947 15.9398 73.5267 16.3179C73.8605 16.128 74.0219 15.7674 74.1792 15.4175C74.2115 15.346 74.3114 15.3889 74.3152 15.4545C74.3461 16.0154 73.9649 16.5477 73.4356 16.7198C73.3515 16.7472 73.2512 16.6854 73.2323 16.6006C73.1145 16.0696 73.3137 14.358 74.197 14.6416Z" fill="#1F3813"/>
<path fill-rule="evenodd" clip-rule="evenodd" d="M72.1036 13.2112C72.1407 13.2136 72.1792 13.2363 72.1871 13.2758C72.2142 13.4135 72.1232 13.522 72.0631 13.6371C72.0236 13.7133 71.9927 13.8026 71.9899 13.8593C71.9892 13.8727 71.9899 13.8861 71.991 13.8995C71.992 13.9019 71.9954 13.9266 71.9968 13.9328C71.9989 13.9407 71.9992 13.9431 71.9999 13.9458C72.0006 13.9465 72.0002 13.9458 72.0016 13.9486C72.0078 13.9623 72.0157 13.975 72.0239 13.9877C71.9985 13.9482 72.0638 14.0152 72.0521 14.0121C72.0603 14.0173 72.0682 14.0224 72.0768 14.0272C72.0802 14.0293 72.0823 14.0303 72.084 14.0317C72.0864 14.0317 72.0902 14.0327 72.0978 14.0351C72.107 14.0379 72.1166 14.0396 72.1263 14.0413C72.1307 14.0413 72.1503 14.0437 72.1565 14.0437C72.161 14.0441 72.1785 14.0427 72.1853 14.0423C72.1974 14.0403 72.209 14.0379 72.2207 14.0348C72.2365 14.031 72.2516 14.0255 72.2671 14.02C72.2331 14.032 72.2822 14.0118 72.2887 14.0083C72.3351 13.984 72.3279 13.9871 72.3667 13.9493C72.4852 13.8342 72.5669 13.5801 72.6194 13.406C72.6239 13.3919 72.6476 13.3854 72.6545 13.4018C72.7644 13.6704 72.7462 13.9218 72.5645 14.1529C72.4357 14.3167 72.2169 14.3878 72.0164 14.3401C71.8052 14.29 71.6836 14.1045 71.6609 13.8991C71.6468 13.7762 71.6874 13.6488 71.7365 13.5378C71.7983 13.397 71.9298 13.1999 72.1036 13.2112Z" fill="#1F3813"/>
<path fill-rule="evenodd" clip-rule="evenodd" d="M71.6486 18.1867C71.7928 18.1832 71.8646 18.4078 71.7221 18.4697C71.5088 18.5624 71.3759 18.662 71.2911 18.8893C71.2203 19.0796 71.1932 19.3255 71.2942 19.5099C71.4127 19.7259 71.7441 19.4725 71.8262 19.3502C72.0006 19.0892 72.0233 18.6829 71.9553 18.3841C71.9367 18.3031 72.0322 18.2523 72.092 18.3072C72.4289 18.6194 72.3049 19.2225 72.0827 19.5652C71.9027 19.8427 71.4367 20.0625 71.1389 19.8403C70.6042 19.4409 70.9703 18.2021 71.6486 18.1867Z" fill="#1F3813"/>
<path fill-rule="evenodd" clip-rule="evenodd" d="M73.1798 19.6157C73.3182 19.5749 73.3913 19.7249 73.3449 19.8345C73.2979 19.9465 73.1839 20.0285 73.12 20.1343C73.0771 20.2054 73.0489 20.2899 73.0424 20.3727C73.0307 20.5241 73.0939 20.6419 73.1856 20.7329C73.2553 20.8023 73.3443 20.8277 73.4105 20.8105C73.4116 20.8105 73.4469 20.7906 73.4329 20.802C73.483 20.7628 73.461 20.7731 73.5016 20.7261C73.5376 20.6842 73.5781 20.5866 73.6121 20.5131C73.6159 20.5001 73.6183 20.4874 73.6266 20.4736C73.6376 20.4537 73.6427 20.4331 73.6479 20.4128C73.6527 20.3909 73.6564 20.3672 73.6595 20.3428C73.6637 20.2899 73.6626 20.236 73.6757 20.1824C73.6547 20.1724 73.6389 20.1515 73.6479 20.1271C73.6626 20.0862 73.6928 20.0299 73.6709 19.9904C73.6537 19.9595 73.6637 19.921 73.6949 19.9056C73.7159 19.8949 73.7409 19.8974 73.7602 19.9114C73.7615 19.9077 73.7622 19.9035 73.7633 19.8994C73.7808 19.8421 73.878 19.8321 73.8886 19.9001C73.9085 20.0272 73.9233 20.1522 73.9322 20.2803C73.9408 20.3084 73.9473 20.338 73.9518 20.3696C73.9648 20.4623 73.937 20.5327 73.8917 20.6093C73.9154 20.861 73.7955 21.1007 73.5479 21.1955C73.3264 21.2807 73.0966 21.1859 72.9225 21.0468C72.7333 20.8954 72.6423 20.6347 72.6605 20.3977C72.6818 20.1165 72.8926 19.7002 73.1798 19.6157Z" fill="#1F3813"/>
<path fill-rule="evenodd" clip-rule="evenodd" d="M71.4452 22.2155C71.5139 22.2419 71.5428 22.322 71.4878 22.379C71.403 22.4669 71.2873 22.481 71.1963 22.5631C71.0915 22.6578 71.096 22.8182 71.121 22.9436C71.1616 23.1496 71.2952 23.3269 71.4665 23.4436C71.6517 23.1122 71.64 22.7543 71.6359 22.3659C71.6355 22.3151 71.708 22.2952 71.7317 22.3409C71.9937 22.8378 72.0064 23.3451 71.6413 23.7936C71.5912 23.8551 71.4985 23.8485 71.4353 23.8183C71.0709 23.6449 70.8374 23.2729 70.8017 22.8763C70.7738 22.5661 71.0867 22.0781 71.4452 22.2155Z" fill="#1F3813"/>
<path fill-rule="evenodd" clip-rule="evenodd" d="M75.222 24.2469C75.3741 24.0827 75.5575 23.8966 75.7718 23.8135C75.708 24.0185 75.6434 24.2249 75.5445 24.4131C75.4686 24.5581 75.3745 24.7552 75.2241 24.838C75.1626 24.8716 74.9706 24.9163 74.9263 24.8246C74.8456 24.6587 75.1248 24.352 75.222 24.2469ZM74.6701 25.11C75.0001 25.4561 75.4992 25.1872 75.7117 24.8654C75.9539 24.4986 76.1688 23.9979 76.1022 23.5518C76.0826 23.4223 75.9154 23.4412 75.8656 23.535C75.8313 23.491 75.7756 23.4646 75.7007 23.4831C75.2059 23.6078 74.1543 24.5687 74.6701 25.11Z" fill="#1F3813"/>
<path fill-rule="evenodd" clip-rule="evenodd" d="M77.7218 23.9843C77.6349 24.213 77.512 24.4177 77.3289 24.5819C77.3248 24.484 77.3426 24.3864 77.3972 24.2958C77.4817 24.1557 77.6081 24.0815 77.7218 23.9843ZM77.0243 24.9521C77.0631 25.062 77.1878 25.1362 77.2987 25.0692C77.7929 24.7687 78.1707 24.2037 78.0645 23.6089C78.0436 23.4904 77.8612 23.4959 77.8351 23.6079C77.8248 23.6508 77.8135 23.6927 77.8018 23.735C77.7864 23.724 77.7671 23.7171 77.7441 23.7157C77.1637 23.6876 76.8605 24.4874 77.0243 24.9521Z" fill="#1F3813"/>
<path fill-rule="evenodd" clip-rule="evenodd" d="M88.4413 24.0923C88.5093 24.095 88.5698 24.1754 88.5248 24.2386C88.3802 24.4436 88.1549 24.5501 88.0193 24.7726C87.8544 25.0446 87.8994 25.33 88.0618 25.5639C88.4554 25.0931 88.6137 24.537 88.8088 23.9522C88.8638 23.7877 89.1069 23.8134 89.1114 23.992C89.1292 24.7115 88.6859 25.5083 88.1965 26.01C88.1226 26.0859 87.9856 26.0852 87.9142 26.0059C87.6281 25.6896 87.5175 25.3122 87.615 24.8949C87.6957 24.5518 88.0577 24.0768 88.4413 24.0923Z" fill="#1F3813"/>
<path fill-rule="evenodd" clip-rule="evenodd" d="M85.8424 22.928C86.0478 22.917 86.0464 23.2381 85.8417 23.2464C85.4962 23.2605 85.07 23.8282 85.2342 24.1692C85.328 24.3643 85.67 24.0954 85.7428 24.0126C85.9348 23.7948 86.0694 23.5318 86.2298 23.2921C86.2511 23.2598 86.2975 23.2876 86.281 23.3219C86.1158 23.6654 86.0069 24.1067 85.7147 24.3698C85.5076 24.5562 85.1415 24.5394 84.9838 24.3097C84.818 24.0679 84.9509 23.697 85.0711 23.4689C85.2256 23.1756 85.5045 22.9462 85.8424 22.928Z" fill="#1F3813"/>
<path fill-rule="evenodd" clip-rule="evenodd" d="M83.2244 21.6738C83.3769 21.5746 83.563 21.8194 83.4167 21.9314C83.2454 22.0633 83.1289 22.236 83.0314 22.427C82.9799 22.5283 82.8075 22.9044 82.9442 22.9985C83.3065 23.2481 83.5143 21.9321 83.5016 21.7329C83.4974 21.6707 83.586 21.634 83.6266 21.6824C83.8642 21.9664 83.7327 22.451 83.6286 22.7618C83.5081 23.1214 83.2924 23.4047 82.8837 23.3416C82.5386 23.2883 82.5403 22.8631 82.6028 22.6093C82.6893 22.259 82.9184 21.873 83.2244 21.6738Z" fill="#1F3813"/>
<path fill-rule="evenodd" clip-rule="evenodd" d="M79.7054 21.0106C79.8806 20.8877 80.0344 21.1744 79.8665 21.2981C79.7178 21.408 79.6494 21.589 79.6158 21.7638C79.5945 21.874 79.5852 22.1045 79.6924 22.1811C79.8232 22.2745 80.0918 22.0038 80.1464 21.9073C80.269 21.6906 80.3167 21.4286 80.406 21.1968C80.4331 21.1267 80.5461 21.1305 80.5441 21.2153C80.5358 21.5495 80.5695 21.9657 80.3181 22.2305C80.1189 22.44 79.7992 22.6279 79.5151 22.4829C79.2799 22.3631 79.2411 22.032 79.2634 21.8012C79.294 21.4849 79.4441 21.1944 79.7054 21.0106Z" fill="#1F3813"/>
<path fill-rule="evenodd" clip-rule="evenodd" d="M93.2801 26.1308C93.2846 26.0961 93.2921 26.0593 93.2997 26.0229C93.4223 25.9889 93.4944 25.8759 93.5761 25.7763C93.6225 25.72 93.6672 25.6647 93.7094 25.608C93.7156 25.6324 93.7207 25.6572 93.7242 25.6822C93.7249 25.6881 93.7259 25.6973 93.7262 25.7018C93.7273 25.709 93.7307 25.7368 93.7324 25.7499C93.7376 25.8017 93.7386 25.8543 93.7328 25.9065C93.7324 25.9089 93.7324 25.9092 93.7321 25.911C93.7317 25.9134 93.731 25.9154 93.7307 25.9195C93.7283 25.9322 93.7259 25.9453 93.7228 25.9583C93.717 25.9838 93.7104 26.0092 93.7022 26.0346C93.6991 26.0439 93.6809 26.0906 93.6819 26.0902C93.673 26.1105 93.6637 26.1308 93.6531 26.1503C93.6294 26.1946 93.6026 26.2376 93.5724 26.2774C93.572 26.2784 93.5717 26.2784 93.5713 26.2791C93.5707 26.2801 93.5703 26.2805 93.5693 26.2815C93.5617 26.2904 93.5538 26.2997 93.5459 26.3087C93.5305 26.3258 93.5147 26.3427 93.4975 26.3584C93.4814 26.3739 93.4649 26.3887 93.4474 26.4028C93.4463 26.4034 93.446 26.4038 93.445 26.4045C93.4374 26.4096 93.4302 26.4148 93.4226 26.4196C93.4031 26.4316 93.3835 26.4433 93.3629 26.4525C93.3581 26.455 93.3588 26.455 93.3567 26.456C93.3536 26.4567 93.3526 26.4567 93.3443 26.4591C93.3378 26.4608 93.3254 26.4625 93.3162 26.4639C93.312 26.4635 93.309 26.4632 93.3055 26.4632C93.3048 26.4629 93.3041 26.4625 93.3035 26.4622C93.3031 26.4622 93.3035 26.4618 93.3031 26.4615C93.299 26.4539 93.2949 26.4467 93.2911 26.4388C93.2846 26.4192 93.2791 26.3993 93.2753 26.3787C93.2746 26.3749 93.2736 26.3643 93.2729 26.3581C93.2722 26.3492 93.2712 26.3399 93.2708 26.331C93.2681 26.264 93.2719 26.197 93.2801 26.1308ZM93.1355 25.4789C93.0273 25.6578 92.9751 25.88 92.9477 26.0868C92.9188 26.3028 92.8961 26.6469 93.1376 26.762C93.3361 26.8568 93.5428 26.764 93.6939 26.625C93.8581 26.4742 93.9835 26.2592 94.024 26.0391C94.0655 25.8107 94.0384 25.5328 93.8506 25.381C93.9622 25.2433 93.7297 24.9919 93.5916 25.1578C93.5119 25.2533 93.4305 25.3474 93.3495 25.4422C93.2866 25.3972 93.1805 25.4047 93.1355 25.4789Z" fill="#1F3813"/>
<path fill-rule="evenodd" clip-rule="evenodd" d="M93.7263 25.7018C93.7263 25.7025 93.7267 25.7045 93.7267 25.7045C93.726 25.6984 93.726 25.6991 93.7263 25.7018Z" fill="#1F3813"/>
<path fill-rule="evenodd" clip-rule="evenodd" d="M91.6898 24.8592C91.7554 24.8293 91.8086 24.8409 91.8639 24.8846C92.0116 25.001 91.7413 25.239 91.6846 25.3331C91.5637 25.5333 91.484 25.7844 91.4937 26.0196C91.4937 26.0206 91.4943 26.0213 91.4943 26.0224C91.4974 26.0206 91.4992 26.02 91.5029 26.0182C91.6228 25.9537 91.6973 25.8462 91.7578 25.7284C91.8893 25.4729 91.9837 25.0793 91.9467 24.7915C91.9405 24.7431 92.0026 24.6874 92.0421 24.7376C92.2712 25.0309 92.209 25.4746 92.0936 25.8033C92.0019 26.0643 91.7203 26.4719 91.391 26.407C90.7666 26.2847 91.3456 25.0171 91.6898 24.8592Z" fill="#1F3813"/>
<path fill-rule="evenodd" clip-rule="evenodd" d="M90.1269 28.2792C90.1722 28.283 90.2217 28.3026 90.2426 28.3472C90.3443 28.566 89.9418 28.5849 89.8236 28.6766C89.7021 28.7707 89.6162 28.9321 89.6512 29.0877C89.6866 29.2467 89.8535 29.1938 89.9627 29.1389C90.0839 29.0784 90.1987 28.9795 90.2673 28.8631C90.3305 28.7559 90.2993 28.6268 90.3587 28.5193C90.3673 28.5042 90.3872 28.4956 90.404 28.5008C90.5589 28.5485 90.6159 28.7236 90.5812 28.8765C90.5404 29.0561 90.4099 29.1935 90.2694 29.3037C90.0544 29.4723 89.7196 29.6121 89.4823 29.4033C89.2961 29.2398 89.2985 28.9613 89.3906 28.7501C89.5094 28.4774 89.8226 28.2552 90.1269 28.2792Z" fill="#1F3813"/>
<path fill-rule="evenodd" clip-rule="evenodd" d="M87.1009 27.9999C87.2235 28.0074 87.2785 28.1438 87.1957 28.2344C87.1384 28.2976 87.0535 28.333 86.99 28.3921C86.8983 28.4765 86.8282 28.5803 86.7647 28.6867C86.6819 28.8255 86.548 29.0806 86.6363 29.2421C86.6641 29.2925 86.8087 29.2682 86.8478 29.2609C86.991 29.2348 87.046 28.9951 87.0741 28.8821C87.1047 28.7592 87.0656 28.2653 87.2201 28.2262C87.3801 28.1857 87.4323 28.4185 87.4612 28.5257C87.5209 28.7448 87.4581 29.0102 87.375 29.2146C87.2297 29.5707 86.7908 29.8331 86.4378 29.5666C86.1517 29.3509 86.2619 28.9598 86.3886 28.686C86.4955 28.4549 86.7991 27.981 87.1009 27.9999Z" fill="#1F3813"/>
<path fill-rule="evenodd" clip-rule="evenodd" d="M85.0084 27.0164C85.0026 27.027 84.9998 27.026 85.0084 27.0164V27.0164Z" fill="#1F3813"/>
<path fill-rule="evenodd" clip-rule="evenodd" d="M84.1676 26.9816C84.2325 26.9329 84.2992 26.8879 84.3692 26.8467C84.4554 26.7962 84.5585 26.7268 84.6608 26.7285C84.7649 26.7306 84.8566 26.8573 84.7886 26.9521C84.7315 27.0314 84.645 27.0682 84.564 27.1183C84.5334 27.1376 84.5038 27.1575 84.4743 27.1777C84.4437 27.199 84.4482 27.1956 84.4073 27.2286C84.3654 27.2629 84.326 27.3004 84.2892 27.3402C84.2816 27.3484 84.2748 27.3567 84.2676 27.3653C84.2535 27.3845 84.2404 27.4048 84.2288 27.4257C84.2253 27.4322 84.2222 27.4388 84.2188 27.4453C84.214 27.459 84.2099 27.4728 84.2064 27.4868C84.2061 27.4882 84.2061 27.4882 84.2057 27.4892C84.2057 27.4906 84.2057 27.491 84.2057 27.493C84.2054 27.4992 84.2054 27.5057 84.2057 27.5119C84.2075 27.5205 84.2095 27.5287 84.2119 27.5366C84.2133 27.5394 84.2143 27.5418 84.2157 27.5442C84.2178 27.5476 84.2209 27.5528 84.2243 27.5576C84.2318 27.5665 84.2394 27.5754 84.2476 27.5837C84.2514 27.5875 84.2573 27.5923 84.2628 27.5971C84.2703 27.6026 84.2779 27.6084 84.2858 27.6132C84.2992 27.6221 84.3136 27.6297 84.3277 27.6373C84.3338 27.6404 84.34 27.6434 84.3466 27.6465C84.3764 27.6582 84.4077 27.6678 84.4393 27.6754C84.4561 27.6795 84.4736 27.6829 84.4908 27.6857C84.4977 27.6864 84.5049 27.6874 84.5121 27.6877C84.5478 27.6908 84.5839 27.6908 84.6199 27.6888C84.6254 27.6888 84.6357 27.6874 84.6453 27.6864C84.6615 27.6836 84.6776 27.6809 84.6938 27.6771C84.7226 27.6706 84.7508 27.661 84.7786 27.6507C84.7875 27.6469 84.7978 27.6428 84.8033 27.64C84.8202 27.6314 84.8363 27.6215 84.8521 27.6112C84.86 27.6043 84.8679 27.5974 84.8754 27.5902C84.8837 27.5823 84.8916 27.5737 84.8995 27.5651L84.8998 27.5648C84.9005 27.5641 84.9005 27.5641 84.9009 27.5634C84.9125 27.5466 84.9218 27.5277 84.9311 27.5095C84.9345 27.4975 84.95 27.4563 84.9534 27.4425C84.9548 27.435 84.9562 27.4274 84.9575 27.4199C84.9586 27.4085 84.9678 27.3402 84.9671 27.345C84.9689 27.3354 84.9706 27.3258 84.972 27.3165C84.9713 27.3168 84.9761 27.276 84.9768 27.2677C84.9795 27.2258 84.9785 27.1843 84.9761 27.1427C84.9747 27.1163 84.975 27.0929 84.9816 27.0668C84.9874 27.0448 84.9984 27.0256 85.0149 27.0098C85.0114 27.0126 85.0104 27.0143 85.0084 27.0163C85.0104 27.0132 85.0121 27.0098 85.0138 27.0043C85.0266 26.9669 85.0726 26.9401 85.1093 26.9652C85.1395 26.9858 85.1718 26.995 85.1993 27.0222C85.2237 27.0466 85.2357 27.084 85.2484 27.1156C85.2731 27.176 85.2948 27.2368 85.3089 27.3007C85.3329 27.4099 85.3212 27.5287 85.2834 27.6338C85.2103 27.8361 85.0588 27.967 84.8621 28.0435C84.5454 28.1672 84.101 28.0446 83.909 27.7647C83.7995 27.6046 83.8242 27.3924 83.9238 27.2351C83.9866 27.1352 84.0735 27.0524 84.1676 26.9816Z" fill="#1F3813"/>
<path fill-rule="evenodd" clip-rule="evenodd" d="M81.3666 26.3323C81.4267 26.2472 81.4919 26.1338 81.6049 26.1187C81.6805 26.1091 81.7385 26.1496 81.7454 26.2276C81.7533 26.3248 81.688 26.3945 81.6369 26.4687C81.5946 26.5302 81.5562 26.5934 81.5215 26.6593C81.5094 26.682 81.4985 26.7053 81.4878 26.729C81.4892 26.7276 81.4717 26.7726 81.4686 26.7819C81.4614 26.8032 81.4559 26.8248 81.4511 26.8468C81.4504 26.8506 81.4497 26.8547 81.449 26.8585C81.4483 26.864 81.4463 26.8781 81.4459 26.8836C81.4456 26.8949 81.4463 26.9059 81.4469 26.9172C81.4483 26.9255 81.4507 26.9409 81.4528 26.9478C81.4531 26.9492 81.4528 26.9485 81.4531 26.9495C81.4545 26.9519 81.4545 26.9512 81.4572 26.956C81.4586 26.9584 81.459 26.9595 81.46 26.9615C81.4614 26.9629 81.4624 26.9639 81.4648 26.9663C81.4672 26.9691 81.4696 26.9711 81.4724 26.9735C81.4809 26.9794 81.4902 26.9845 81.4998 26.9893C81.5033 26.9907 81.507 26.9921 81.5108 26.9931C81.528 26.9986 81.5455 27.0027 81.5634 27.0062C81.5665 27.0069 81.5675 27.0069 81.5692 27.0075C81.572 27.0075 81.574 27.0079 81.5785 27.0082C81.5956 27.0096 81.6128 27.0099 81.63 27.0099C81.6478 27.0099 81.6661 27.0089 81.6836 27.0075C81.6867 27.0075 81.6894 27.0069 81.6925 27.0069C81.699 27.0058 81.7121 27.0044 81.7172 27.0034C81.7557 26.9972 81.7935 26.9876 81.8309 26.9766C81.8501 26.9708 81.869 26.9646 81.8879 26.9577C81.8917 26.9564 81.8955 26.955 81.8992 26.9536C81.8992 26.9533 81.9198 26.9447 81.9257 26.9419C81.9631 26.9255 81.9992 26.9062 82.0342 26.8849C82.0517 26.8746 82.0686 26.8633 82.085 26.852C82.0864 26.8509 82.0888 26.8492 82.0909 26.8478C82.0998 26.8406 82.1084 26.8338 82.117 26.8269C82.1472 26.8015 82.175 26.7737 82.2008 26.7441C82.2039 26.7403 82.2059 26.7383 82.2076 26.7366C82.2094 26.7338 82.2118 26.73 82.2169 26.7232C82.2296 26.705 82.2406 26.6861 82.2513 26.6665C82.2544 26.661 82.2568 26.6548 82.2598 26.6493C82.2605 26.6462 82.2691 26.625 82.2715 26.6174C82.2753 26.6057 82.2781 26.5937 82.2808 26.5813C82.2822 26.5758 82.2832 26.57 82.2842 26.5642V26.5638C82.287 26.5381 82.2856 26.512 82.2835 26.4862C82.2825 26.4783 82.2808 26.4673 82.2801 26.4632C82.2763 26.446 82.2712 26.4289 82.266 26.412C82.2633 26.4041 82.2626 26.4014 82.2619 26.399C82.2616 26.3983 82.2612 26.3979 82.2598 26.3942C82.2533 26.3791 82.2471 26.3639 82.2416 26.3485C82.2399 26.344 82.2403 26.3444 82.2396 26.3427C82.2389 26.3406 82.2392 26.3413 82.2375 26.3382C82.2221 26.3018 82.2028 26.2674 82.1822 26.2341C82.1596 26.197 82.1451 26.1541 82.1242 26.116C82.0977 26.0682 82.071 26.0301 82.0531 25.9783C82.0425 25.9484 82.0741 25.9288 82.0995 25.9322C82.2207 25.9491 82.3522 26.0391 82.4298 26.1321C82.5023 26.2194 82.5542 26.3169 82.5724 26.4295C82.6057 26.6353 82.5336 26.8217 82.4003 26.977C82.187 27.2249 81.7519 27.41 81.427 27.3056C81.2371 27.2445 81.1159 27.0759 81.1324 26.8739C81.143 26.7469 81.1907 26.6291 81.2502 26.5175C81.2845 26.4529 81.3247 26.3918 81.3666 26.3323Z" fill="#1F3813"/>
<path fill-rule="evenodd" clip-rule="evenodd" d="M79.1289 25.3388C79.1749 25.3525 79.1969 25.3958 79.1879 25.4414C79.167 25.5496 79.0502 25.6248 78.9747 25.6976C78.8589 25.8089 78.7593 25.9363 78.668 26.0679C78.5406 26.2513 78.3304 26.5597 78.3894 26.798C78.4056 26.8636 78.6594 26.7959 78.6917 26.7887C78.8744 26.7468 78.9654 26.5198 79.0279 26.3636C79.1498 26.0589 79.1611 25.7286 79.2556 25.4208C79.2645 25.392 79.2965 25.3779 79.3229 25.393C79.6828 25.5974 79.4259 26.3608 79.2992 26.6338C79.1155 27.0298 78.659 27.3709 78.2153 27.1229C77.8588 26.9237 78.0965 26.4072 78.239 26.1558C78.3678 25.9284 78.8019 25.2419 79.1289 25.3388Z" fill="#1F3813"/>
<path fill-rule="evenodd" clip-rule="evenodd" d="M75.1729 27.6098C75.2636 27.5353 75.4237 27.605 75.3838 27.7338C75.3302 27.9076 75.2595 28.045 75.2856 28.2349C75.2956 28.3091 75.3158 28.3825 75.3491 28.4495C75.3639 28.4787 75.3773 28.4993 75.3917 28.5161C75.4089 28.5361 75.4364 28.555 75.4223 28.5491C75.4316 28.5532 75.4346 28.555 75.4377 28.5567C75.4381 28.5556 75.4384 28.5543 75.4436 28.5532C75.4319 28.5556 75.4738 28.5333 75.4855 28.5227C75.5621 28.4526 75.6108 28.3441 75.6503 28.2503C75.7029 28.1243 75.7592 28.0425 75.7324 27.899C75.7238 27.8513 75.7152 27.8028 75.7056 27.7547C75.7015 27.7338 75.6998 27.6497 75.6936 27.6428C75.6816 27.6304 75.6936 27.6036 75.7118 27.6112C75.7516 27.6277 75.7836 27.6095 75.8224 27.6383C75.8746 27.6771 75.9185 27.7211 75.9529 27.7764C76.047 27.9278 76.0518 28.1363 76.0006 28.3015C75.923 28.5522 75.7307 28.9173 75.4226 28.9083C74.8786 28.8932 74.8426 27.8818 75.1729 27.6098Z" fill="#1F3813"/>
<path fill-rule="evenodd" clip-rule="evenodd" d="M72.8902 25.6651C73.0265 25.6582 73.0255 25.8399 72.918 25.8828C72.7044 25.968 72.5539 26.0923 72.4794 26.3149C72.42 26.4907 72.4169 26.7054 72.5186 26.8661C72.6415 27.0605 72.8689 26.8139 72.9815 26.7507C73.2236 26.6161 73.3054 26.1734 73.2978 25.9199C73.2978 25.912 73.3098 25.9082 73.3129 25.9158C73.4455 26.2149 73.4802 26.7744 73.1505 26.9691C72.9904 27.0636 72.8829 27.1927 72.6872 27.2167C72.5526 27.2332 72.4334 27.1862 72.3345 27.0965C72.1209 26.9032 72.1343 26.5271 72.206 26.2767C72.295 25.9656 72.5539 25.6816 72.8902 25.6651Z" fill="#1F3813"/>
<path fill-rule="evenodd" clip-rule="evenodd" d="M70.2139 25.6685C70.3306 25.6156 70.4313 25.7255 70.3808 25.8388C70.3008 26.0181 70.218 26.1716 70.1926 26.3711C70.172 26.5312 70.1768 26.798 70.2953 26.9234C70.3344 26.9646 70.4158 26.9158 70.4436 26.8887C70.5209 26.8135 70.525 26.6589 70.5302 26.561C70.5432 26.3155 70.5168 26.0579 70.4975 25.8127C70.4927 25.7516 70.5745 25.7262 70.6136 25.766C70.865 26.0212 70.9361 26.4312 70.8877 26.7747C70.8403 27.1157 70.5552 27.4426 70.1809 27.2977C69.8687 27.1772 69.8141 26.8001 69.8443 26.5078C69.8715 26.2434 69.9384 25.7935 70.2139 25.6685Z" fill="#1F3813"/>
<path fill-rule="evenodd" clip-rule="evenodd" d="M70.6241 29.1239C70.6636 29.1153 70.6976 29.125 70.7302 29.1397C70.9019 29.4399 71.0005 29.7716 70.8497 30.0828C70.6316 29.9389 70.4997 29.6497 70.509 29.3983C70.5114 29.3224 70.5238 29.1462 70.6241 29.1239ZM70.2868 29.3011C70.2123 29.7874 70.3737 30.3314 70.8707 30.5093C70.9562 30.5402 71.0334 30.4856 71.0822 30.4224C71.3789 30.0412 71.3147 29.4904 70.9974 29.1548C71.0008 29.1462 71.0029 29.137 71.0036 29.1274C71.0218 28.9364 70.7113 28.8399 70.5619 28.8856C70.3888 28.9378 70.3115 29.1387 70.2868 29.3011Z" fill="#1F3813"/>
<path fill-rule="evenodd" clip-rule="evenodd" d="M72.5224 28.7382C72.7707 28.6324 73.0565 28.7633 73.2484 28.9261C73.323 28.9893 73.2955 29.0806 73.2337 29.1308L73.2454 29.1294C73.2182 29.1634 73.1715 29.1723 73.1282 29.1668C73.1262 29.1665 73.1241 29.1665 73.1224 29.1665C73.1042 29.163 73.087 29.1582 73.0726 29.15C73.0194 29.1201 72.9682 29.0868 72.9146 29.0579C72.9067 29.0538 72.8686 29.036 72.8617 29.0322C72.8394 29.0233 72.8171 29.0154 72.7944 29.0088C72.7797 29.0044 72.7642 29.0016 72.7487 28.9985C72.7429 28.9982 72.7182 28.9951 72.7103 28.9951C72.7024 28.9951 72.6945 28.9954 72.6869 28.9958C72.6759 28.9975 72.6653 29.0013 72.6546 29.0044C72.6471 29.0081 72.6344 29.0136 72.6289 29.0171C72.6275 29.0178 72.6268 29.0181 72.6258 29.0184C72.6241 29.0202 72.6227 29.0215 72.62 29.0243C72.6134 29.0298 72.6079 29.0363 72.6021 29.0428C72.5966 29.0504 72.5842 29.0665 72.5801 29.0737C72.575 29.0823 72.5708 29.0916 72.5664 29.1009C72.5629 29.1095 72.5561 29.1256 72.554 29.1321C72.5489 29.1483 72.5444 29.1648 72.5403 29.1812C72.5386 29.1891 72.5344 29.217 72.5327 29.2262C72.53 29.2585 72.5293 29.2904 72.5296 29.3227C72.53 29.3416 72.531 29.3605 72.5327 29.3794C72.5334 29.389 72.5341 29.3986 72.5351 29.4082C72.5358 29.4131 72.5355 29.4127 72.5358 29.4155C72.5465 29.4934 72.5654 29.5707 72.5911 29.6456C72.5939 29.6538 72.6035 29.6775 72.6059 29.6833C72.6097 29.6926 72.6138 29.7022 72.6176 29.7115C72.6313 29.7445 72.6474 29.7761 72.6656 29.8066C72.6694 29.8132 72.6739 29.8193 72.6783 29.8259C72.6835 29.8324 72.6904 29.8413 72.6945 29.8458C72.6996 29.8513 72.7051 29.8561 72.7103 29.8612C72.7127 29.863 72.7151 29.8643 72.7175 29.866C72.7226 29.8633 72.7278 29.8606 72.7329 29.8571C72.7347 29.8557 72.7357 29.8547 72.7378 29.8527C72.7487 29.843 72.759 29.8324 72.769 29.8214C72.7718 29.8187 72.7762 29.8132 72.78 29.8083C72.7882 29.7974 72.7961 29.7867 72.8034 29.7757C72.8274 29.7397 72.8453 29.6998 72.8703 29.6648C72.9359 29.5721 72.9929 29.4725 73.0541 29.377C73.109 29.2922 73.2629 29.3186 73.2553 29.4319C73.2381 29.6809 73.1691 29.9471 72.9713 30.1164C72.8178 30.2479 72.6296 30.2503 72.4737 30.1243C72.2168 29.9165 72.1852 29.4821 72.2384 29.1823C72.2697 29.0064 72.3456 28.8134 72.5224 28.7382Z" fill="#1F3813"/>
<path fill-rule="evenodd" clip-rule="evenodd" d="M73.992 31.2336C74.1125 31.1152 74.3416 30.9304 74.5147 31.0259C74.5501 31.0458 74.5703 31.0925 74.558 31.132C74.5168 31.2649 74.3814 31.2944 74.2791 31.3714C74.1798 31.4466 74.1043 31.5414 74.0476 31.6513C74.0105 31.7234 73.9937 31.8061 73.993 31.8868C73.9927 31.9377 74.0208 32.0057 74.0256 32.0088C74.0298 32.0119 74.0315 32.0136 74.0322 32.0146C74.0332 32.0139 74.0356 32.0129 74.0418 32.0119C74.071 32.0064 74.0991 31.9888 74.1225 31.971C74.2441 31.8786 74.3275 31.7412 74.4034 31.6118C74.4834 31.4764 74.5429 31.3322 74.5727 31.1773C74.6002 31.0362 74.5236 30.9033 74.5267 30.7655C74.5277 30.7329 74.5604 30.7181 74.5878 30.7308C74.7489 30.8064 74.807 31.0121 74.8245 31.1742C74.8468 31.381 74.7472 31.5815 74.6524 31.7577C74.5308 31.983 74.2465 32.4274 73.9233 32.2948C73.6671 32.1898 73.6565 31.8728 73.7286 31.6444C73.7784 31.4871 73.8752 31.3483 73.992 31.2336Z" fill="#1F3813"/>
<path fill-rule="evenodd" clip-rule="evenodd" d="M71.6777 32.6894C71.7378 32.5884 71.8246 32.5022 71.9455 32.4816C72.0513 32.4637 72.1495 32.5005 72.246 32.4469C72.2512 32.4438 72.2557 32.439 72.2601 32.4346C72.232 32.5568 72.2062 32.6798 72.1708 32.8017C72.1334 32.9325 71.9067 33.4899 71.6852 33.2334C71.565 33.0943 71.589 32.8391 71.6777 32.6894ZM71.4925 32.5348C71.3421 32.7742 71.2961 33.1183 71.4606 33.3629C71.6309 33.6167 72.0527 33.5844 72.2189 33.3385C72.4713 32.9645 72.4861 32.449 72.4748 32.0159C72.4737 31.9764 72.4126 31.952 72.3944 31.9939C72.3412 32.1155 72.3068 32.2405 72.2763 32.3672C72.2749 32.3631 72.2745 32.3587 72.2718 32.3549C72.0867 32.087 71.6261 32.3226 71.4925 32.5348Z" fill="#1F3813"/>
<path fill-rule="evenodd" clip-rule="evenodd" d="M73.5055 33.5929C73.7157 33.5057 73.9028 33.5754 74.1141 33.6001C74.0206 33.8392 73.7737 34.138 73.5457 33.9985C73.3509 33.8794 73.2596 33.6953 73.5055 33.5929ZM73.3427 34.2729C73.6264 34.4464 73.9753 34.3492 74.1827 34.1029C74.3074 33.9546 74.4499 33.6403 74.2961 33.4748C74.3239 33.3896 74.3033 33.2852 74.2171 33.2388C73.9368 33.0891 73.4361 33.2275 73.2067 33.4308C72.9182 33.687 73.0305 34.082 73.3427 34.2729Z" fill="#1F3813"/>
<path fill-rule="evenodd" clip-rule="evenodd" d="M76.6487 30.094C76.8489 29.969 77.102 29.879 77.3335 29.9769C77.3417 29.9803 77.3489 29.9797 77.3568 29.9821C77.2428 30.1665 77.1443 30.3636 77.0021 30.5274C76.8616 30.6892 76.4989 30.9286 76.3533 30.615C76.262 30.4193 76.502 30.1854 76.6487 30.094ZM76.0885 30.7634C76.2785 31.0938 76.7187 31.1628 77.011 30.9303C77.2947 30.7043 77.5372 30.2936 77.5454 29.9196C77.5973 29.8416 77.5859 29.7238 77.4592 29.6757C77.0958 29.5373 76.6793 29.6688 76.3949 29.9182C76.1761 30.1098 75.9144 30.4605 76.0885 30.7634Z" fill="#1F3813"/>
<path fill-rule="evenodd" clip-rule="evenodd" d="M76.8342 32.5433C77.123 32.3019 77.4991 32.2116 77.8631 32.3163C78.0774 32.3785 77.9871 32.7133 77.7735 32.6501C77.5509 32.5845 77.3356 32.6175 77.1388 32.738C77.0341 32.8023 76.9036 32.9503 76.9334 33.0671C76.9671 33.2 77.3933 33.1739 77.5005 33.1522C77.8016 33.0914 78.0218 32.8483 78.0513 32.5529C78.0572 32.4956 78.1087 32.4654 78.1612 32.4904C78.334 32.5722 78.347 32.7913 78.3072 32.9554C78.2505 33.1873 77.9933 33.3658 77.7913 33.4617C77.4616 33.6183 76.8479 33.6433 76.624 33.2869C76.4592 33.0245 76.623 32.7198 76.8342 32.5433Z" fill="#1F3813"/>
<path fill-rule="evenodd" clip-rule="evenodd" d="M80.0185 30.5615C80.138 30.3984 80.3125 30.4386 80.4804 30.3836C80.4859 30.3819 80.4897 30.3788 80.4945 30.3768C80.4605 30.6045 80.3224 30.8538 80.1507 30.9637C80.0594 31.0224 79.9866 31.0509 79.9543 30.941C79.9162 30.8122 79.9385 30.6704 80.0185 30.5615ZM79.6764 30.4599C79.5772 30.6793 79.5507 30.9565 79.694 31.165C79.8636 31.4112 80.1617 31.3768 80.3719 31.2024C80.6937 30.9352 80.816 30.499 80.5663 30.147C80.5652 30.146 80.5649 30.1446 80.5639 30.1432C80.5635 30.1429 80.5635 30.1422 80.5632 30.1419C80.5628 30.1412 80.5622 30.1412 80.5615 30.1405C80.5426 30.1151 80.5161 30.0927 80.4818 30.0787C80.1954 29.9612 79.7963 30.1961 79.6764 30.4599Z" fill="#1F3813"/>
<path fill-rule="evenodd" clip-rule="evenodd" d="M80.6366 31.343C80.7427 31.3021 80.8553 31.2856 80.968 31.2746C81.0332 31.2685 81.0988 31.2674 81.1641 31.2685C81.2616 31.2702 81.3945 31.2623 81.4612 31.3457C81.513 31.4106 81.5243 31.503 81.4581 31.5648C81.375 31.6428 81.2675 31.6222 81.1634 31.6229C81.1263 31.6229 81.0892 31.6246 81.0521 31.627C81.035 31.628 81.0178 31.6298 81.0006 31.6311C80.9927 31.6322 80.9848 31.6328 80.9769 31.6339C80.9749 31.6342 80.9728 31.6346 80.9656 31.6356C80.9089 31.6438 80.8533 31.6569 80.799 31.6741C80.7877 31.6775 80.7763 31.6816 80.7654 31.6857C80.7636 31.6864 80.765 31.6861 80.7626 31.6871C80.7389 31.6974 80.7162 31.7098 80.6939 31.7228C80.6874 31.7269 80.6812 31.7314 80.6747 31.7355C80.661 31.7469 80.6479 31.7596 80.6355 31.7726C80.6338 31.7747 80.6331 31.775 80.6314 31.7767C80.6307 31.7781 80.6304 31.7785 80.6294 31.7802C80.6221 31.7908 80.6167 31.8022 80.6112 31.8135C80.6081 31.821 80.605 31.83 80.6033 31.8358C80.6022 31.8399 80.6012 31.8444 80.6005 31.8489C80.5995 31.8616 80.5991 31.8743 80.5995 31.887V31.8949C80.6002 31.8969 80.6002 31.898 80.6009 31.9007C80.6036 31.9162 80.6081 31.9316 80.6129 31.9471C80.6139 31.9505 80.6142 31.9522 80.6149 31.9546C80.628 31.9835 80.6448 32.0103 80.6627 32.0364C80.6678 32.0429 80.673 32.0498 80.6764 32.0532C80.6877 32.0663 80.6998 32.079 80.7118 32.091C80.7224 32.1016 80.7338 32.1116 80.7451 32.1212C80.7516 32.126 80.7585 32.1308 80.7654 32.1356C80.7801 32.1449 80.7952 32.1538 80.8107 32.1621C80.8155 32.1645 80.8203 32.1665 80.8251 32.1689C80.8543 32.1803 80.8852 32.1875 80.9161 32.1933C80.9264 32.1944 80.9384 32.1954 80.9446 32.1954C80.9563 32.1957 80.9676 32.1947 80.9793 32.194C80.99 32.1923 81.0092 32.1896 81.0171 32.1878C81.0264 32.1858 81.0532 32.1762 81.0648 32.1727C81.0782 32.1665 81.0916 32.1604 81.1047 32.1531C81.1136 32.1487 81.1428 32.1288 81.1531 32.1222C81.1957 32.0882 81.2341 32.0498 81.2692 32.0082C81.2705 32.0065 81.2712 32.0058 81.2726 32.0044C81.2733 32.0034 81.2733 32.0031 81.2743 32.0017C81.2932 31.977 81.3107 31.9516 81.3303 31.9272C81.3021 31.9622 81.3348 31.92 81.3385 31.9148C81.3516 31.8969 81.364 31.8784 81.376 31.8599C81.4272 31.7819 81.4677 31.7136 81.5168 31.6407C81.581 31.546 81.7668 31.5697 81.7531 31.7053C81.7235 32.0007 81.5765 32.2672 81.3331 32.4478C81.1713 32.568 80.9549 32.6024 80.7616 32.5532C80.4178 32.4664 80.1231 32.0821 80.2402 31.7221C80.3021 31.5326 80.4563 31.4127 80.6366 31.343Z" fill="#1F3813"/>
<path fill-rule="evenodd" clip-rule="evenodd" d="M84.7693 30.5325C84.7731 30.5332 84.7766 30.5322 84.7803 30.5325C84.5835 30.7798 84.452 31.139 84.1828 31.3011C84.0969 31.353 83.5083 31.4594 83.5948 31.2101C83.7408 30.7908 84.3459 30.4587 84.7693 30.5325ZM83.3087 31.3286C83.3846 31.6724 83.9142 31.7105 84.1786 31.6054C84.5777 31.4467 84.7426 30.9051 84.8549 30.5267C84.9974 30.4837 85.0321 30.2664 84.8559 30.2093C84.5073 30.096 84.0732 30.3392 83.8029 30.5404C83.5831 30.7039 83.239 31.014 83.3087 31.3286Z" fill="#1F3813"/>
</svg>
